<svg width="25" height="24" viewBox="0 0 25 24" fill="none" xmlns="http://www.w3.org/2000/svg">
<path d="M1.27662 10.7988H23.059C23.3479 10.7988 23.6249 10.9252 23.8291 11.1503C24.0334 11.3753 24.1481 11.6805 24.1481 11.9987C24.1481 12.3169 24.0334 12.6221 23.8291 12.8471C23.6249 13.0721 23.3479 13.1985 23.059 13.1985H1.27662C0.987767 13.1985 0.710745 13.0721 0.506496 12.8471C0.302246 12.6221 0.1875 12.3169 0.1875 11.9987C0.1875 11.6805 0.302246 11.3753 0.506496 11.1503C0.710745 10.9252 0.987767 10.7988 1.27662 10.7988Z" fill="#C3A66D"/>
<path d="M2.77952 12L11.8127 21.9491C12.0172 22.1744 12.1321 22.48 12.1321 22.7986C12.1321 23.1173 12.0172 23.4228 11.8127 23.6481C11.6082 23.8734 11.3308 24 11.0416 24C10.7524 24 10.475 23.8734 10.2705 23.6481L0.468407 12.8495C0.366981 12.738 0.286511 12.6056 0.231606 12.4599C0.1767 12.3141 0.148438 12.1578 0.148438 12C0.148437 11.8422 0.1767 11.6859 0.231606 11.5401C0.286511 11.3944 0.366981 11.262 0.468407 11.1505L10.2705 0.351871C10.475 0.126572 10.7524 0 11.0416 0C11.3308 0 11.6082 0.126572 11.8127 0.351871C12.0172 0.577171 12.1321 0.882743 12.1321 1.20136C12.1321 1.51999 12.0172 1.82556 11.8127 2.05086L2.77952 12Z" fill="#C3A66D"/>
</svg>
