<svg width="31" height="20" viewBox="0 0 31 20" fill="none" xmlns="http://www.w3.org/2000/svg">
<path d="M18.4884 18.0075C18.3529 18.9092 17.8785 19.4242 17.0653 19.5525C16.3463 19.665 15.7339 19.1901 15.1016 18.8551C15.0173 18.8117 14.9446 18.8267 14.8834 18.9C14.0967 19.8417 13.2553 19.8767 12.3595 19.0051C12.295 18.9434 12.2239 18.9351 12.1463 18.9801C11.1082 19.6001 10.238 19.4234 9.53551 18.4501C9.47766 18.3717 9.40411 18.3525 9.31485 18.3925C7.92394 19.0175 6.7413 18.5625 6.5975 16.9401C6.58923 16.8484 6.5413 16.795 6.4537 16.7801C5.36774 16.59 4.67849 15.7701 4.93882 14.67C5.0727 14.1025 5.59832 13.495 5.94047 12.9625C5.9597 12.9322 5.96865 12.8964 5.96597 12.8608C5.96328 12.8251 5.9491 12.7915 5.9256 12.7651L5.48179 12.2551C5.42394 12.1884 5.35204 12.1459 5.26609 12.1276C3.71733 11.7742 2.45617 11.3826 1.48262 10.9525C0.714026 10.6151 0.657001 9.82505 0.897497 9.05755C1.73551 6.37922 2.57188 3.77755 3.40659 1.25255C3.46069 1.0895 3.54609 0.938795 3.65791 0.809054C3.76972 0.679314 3.90575 0.573087 4.0582 0.496457C4.21066 0.419826 4.37655 0.374295 4.54637 0.362471C4.7162 0.350647 4.88663 0.372762 5.04791 0.42755C5.95039 0.734217 6.91403 1.06172 7.93882 1.41005C8.99171 1.76672 9.30989 2.48172 8.89336 3.55505C8.857 3.65005 8.88675 3.71422 8.98262 3.74755C9.44626 3.90755 9.89998 3.96755 10.3611 3.69005C12.3793 2.47505 13.676 2.73005 15.714 3.65505C15.7527 3.67219 15.7946 3.68041 15.8366 3.67911C15.8787 3.67781 15.9198 3.66703 15.957 3.64755C17.6512 2.77255 19.2793 2.89422 20.8413 4.01255C20.9256 4.07255 21.019 4.09755 21.1215 4.08755L22.2322 3.98255C22.2665 3.97915 22.2995 3.96729 22.3283 3.94803C22.357 3.92877 22.3806 3.90269 22.397 3.87208C22.4134 3.84148 22.4221 3.80727 22.4223 3.77248C22.4226 3.73769 22.4143 3.70338 22.3983 3.67255C21.2206 1.41755 24.3942 1.00755 25.7058 0.58505C27.1611 0.11505 27.5975 0.56505 28.0215 1.87255C28.833 4.37255 29.6355 6.87588 30.4289 9.38255C30.7066 10.2626 30.1016 10.8376 29.2934 11.1226C28.0413 11.5626 26.4223 12.295 25.4107 11.975C25.3347 11.9501 25.2917 11.9776 25.2818 12.0576C25.1165 13.3459 24.3777 13.9767 23.0653 13.9501C22.9694 13.9484 22.9149 13.995 22.9016 14.09C22.738 15.2867 22.0496 15.8792 20.8363 15.8675C20.7405 15.8659 20.6876 15.9134 20.6777 16.01C20.5421 17.2434 19.8545 17.8717 18.6149 17.8951C18.5405 17.8967 18.4983 17.9342 18.4884 18.0075ZM8.13647 2.86332C8.15329 2.81084 8.15968 2.75553 8.1553 2.70055C8.15091 2.64557 8.13583 2.592 8.11091 2.5429C8.086 2.4938 8.05173 2.45012 8.01007 2.41438C7.96842 2.37863 7.92019 2.3515 7.86813 2.33455L4.78213 1.3295C4.677 1.29527 4.5627 1.30454 4.46436 1.35528C4.36602 1.40602 4.2917 1.49408 4.25775 1.60007L1.68662 9.62677C1.66981 9.67926 1.66341 9.73457 1.66779 9.78955C1.67218 9.84453 1.68726 9.8981 1.71218 9.9472C1.7371 9.9963 1.77136 10.04 1.81302 10.0757C1.85468 10.1115 1.90291 10.1386 1.95496 10.1556L5.04097 11.1606C5.14609 11.1948 5.26039 11.1856 5.35873 11.1348C5.45707 11.0841 5.53139 10.996 5.56535 10.89L8.13647 2.86332ZM26.9705 1.6371C26.9333 1.52171 26.8521 1.42593 26.7449 1.37085C26.6377 1.31576 26.5132 1.30588 26.3987 1.34337L23.3852 2.33067C23.3286 2.34924 23.2761 2.37888 23.2308 2.4179C23.1855 2.45692 23.1482 2.50456 23.1212 2.55809C23.0941 2.61162 23.0778 2.67001 23.0731 2.7299C23.0684 2.7898 23.0755 2.85004 23.0939 2.90717L25.656 10.858C25.6931 10.9734 25.7743 11.0692 25.8815 11.1243C25.9887 11.1793 26.1132 11.1892 26.2277 11.1517L29.2412 10.1644C29.2978 10.1459 29.3503 10.1162 29.3956 10.0772C29.4409 10.0382 29.4782 9.99054 29.5052 9.93701C29.5323 9.88348 29.5486 9.82509 29.5533 9.7652C29.558 9.7053 29.5509 9.64506 29.5325 9.58792L26.9705 1.6371ZM15.5256 15.7701C15.5849 15.6886 15.6709 15.6309 15.7682 15.6076C15.8654 15.5842 15.9675 15.5966 16.0562 15.6425C16.7388 15.9942 17.4471 16.3642 18.181 16.7526C19.143 17.2651 20.2091 16.3776 19.6165 15.535C19.2942 15.075 18.1859 14.615 17.633 14.3125C17.5698 14.2777 17.5163 14.2275 17.4773 14.1664C17.4383 14.1054 17.4151 14.0355 17.41 13.9633C17.4048 13.891 17.4177 13.8188 17.4476 13.7531C17.4775 13.6874 17.5234 13.6305 17.581 13.5875C17.7578 13.4559 17.9719 13.4576 18.2231 13.5926C18.962 13.9892 19.7049 14.3784 20.452 14.76C21.8182 15.46 22.6413 13.7975 21.2231 13.035C20.5058 12.6484 19.7868 12.2609 19.0661 11.8726C18.8182 11.7401 18.662 11.3976 18.8157 11.1851C18.8881 11.0844 18.9939 11.0134 19.1137 10.9849C19.2334 10.9565 19.3591 10.9725 19.4677 11.0301C20.5388 11.5984 21.5892 12.1642 22.619 12.7276C23.2289 13.0601 23.9504 13.2126 24.238 12.4326C24.8405 10.8076 19.1107 8.58255 18.2504 8.30755C18.1463 8.27422 18.0438 8.25505 17.943 8.25005C17.7826 8.24005 17.6777 8.24338 17.6281 8.26005C16.2182 8.74338 14.8041 9.21505 13.3859 9.67505C11.8264 10.18 10.8297 9.14755 10.4901 7.70505C10.4686 7.61838 10.4876 7.54172 10.5471 7.47505C11.6876 6.17005 13.0173 5.10755 14.5363 4.28755C14.5519 4.27942 14.5648 4.26659 14.573 4.25087C14.5813 4.23514 14.5846 4.21732 14.5824 4.19992C14.5802 4.18252 14.5726 4.16641 14.5608 4.15388C14.549 4.14134 14.5335 4.133 14.5165 4.13005C13.9016 3.99755 13.3091 3.67255 12.6843 3.79255C11.0578 4.10005 10.5421 5.16255 8.71733 4.63505C8.61651 4.60505 8.55039 4.64005 8.51899 4.74005L6.29502 11.615C6.26527 11.7067 6.28345 11.7867 6.34956 11.8551L6.69915 12.2176C6.76031 12.2809 6.83469 12.3109 6.92229 12.3076C8.16361 12.2692 8.86279 12.8575 9.01981 14.0725C9.03304 14.1792 9.09254 14.2392 9.19832 14.2526C9.79171 14.3342 10.2231 14.6384 10.4925 15.1651C10.5405 15.2584 10.6091 15.2784 10.6983 15.225C11.781 14.5867 12.6454 14.795 13.2917 15.85C13.3396 15.9284 13.4082 15.955 13.4975 15.93C14.8834 15.5225 15.9124 16.385 15.533 17.865C15.5115 17.95 15.5372 18.0159 15.6099 18.0625C15.9239 18.2692 16.2578 18.4401 16.6115 18.5751C17.4818 18.91 17.9281 17.73 17.0677 17.24C16.6347 16.9934 16.195 16.7492 15.7487 16.5075C15.3834 16.3125 15.3091 16.0667 15.5256 15.7701ZM19.4306 4.29505C17.0033 3.21005 13.1851 6.03255 11.6033 7.72755C11.5471 7.78755 11.533 7.85672 11.5611 7.93505C11.7248 8.37172 12.0082 8.69672 12.4115 8.91005C12.4484 8.92983 12.4889 8.94201 12.5306 8.94587C12.5723 8.94974 12.6144 8.94521 12.6545 8.93255L17.5711 7.30255C17.7562 7.24088 17.9421 7.23755 18.1289 7.29255C20.4132 7.96422 22.4958 9.03172 24.3768 10.4951C24.3928 10.5072 24.4122 10.5138 24.4322 10.5141C24.4522 10.5143 24.4718 10.5082 24.4881 10.4965C24.5043 10.4848 24.5165 10.4682 24.5228 10.449C24.5291 10.4299 24.5292 10.4092 24.5231 10.39L22.7801 4.96005C22.771 4.93141 22.7562 4.90496 22.7365 4.88233C22.7169 4.8597 22.6928 4.84138 22.6659 4.8285C22.6389 4.81561 22.6096 4.80843 22.5798 4.80741C22.55 4.80639 22.5203 4.81154 22.4925 4.82255C21.1264 5.36005 20.6256 4.82755 19.4306 4.29505ZM7.93924 14.4837C8.05285 14.3219 8.09806 14.1212 8.06493 13.9258C8.03181 13.7304 7.92305 13.5563 7.76259 13.4417L7.69785 13.3955C7.6184 13.3387 7.52865 13.2984 7.43371 13.2766C7.33878 13.2549 7.24053 13.2522 7.14456 13.2687C7.0486 13.2852 6.95681 13.3207 6.87443 13.373C6.79205 13.4253 6.7207 13.4935 6.66444 13.5736L5.92518 14.6264C5.81157 14.7882 5.76635 14.9889 5.79948 15.1843C5.83261 15.3797 5.94137 15.5538 6.10183 15.6684L6.16656 15.7146C6.24602 15.7714 6.33577 15.8117 6.4307 15.8335C6.52564 15.8552 6.62389 15.8579 6.71985 15.8414C6.81581 15.8249 6.9076 15.7894 6.98998 15.7371C7.07236 15.6848 7.14372 15.6166 7.19998 15.5365L7.93924 14.4837ZM9.65348 16.388C9.76438 16.2259 9.80687 16.0261 9.77162 15.8324C9.73637 15.6387 9.62625 15.467 9.4655 15.3552L9.40019 15.3098C9.32059 15.2544 9.23096 15.2154 9.1364 15.195C9.04185 15.1745 8.94423 15.1731 8.84911 15.1907C8.754 15.2083 8.66325 15.2446 8.58206 15.2976C8.50087 15.3505 8.43081 15.4191 8.3759 15.4993L7.65226 16.5571C7.54136 16.7192 7.49886 16.919 7.53412 17.1127C7.56937 17.3064 7.67949 17.4781 7.84024 17.5899L7.90555 17.6353C7.98515 17.6907 8.07478 17.7297 8.16933 17.7501C8.26389 17.7706 8.36151 17.772 8.45663 17.7544C8.55174 17.7368 8.64248 17.7005 8.72368 17.6476C8.80487 17.5946 8.87492 17.526 8.92984 17.4457L9.65348 16.388ZM12.4179 17.0138C12.5293 16.8521 12.5725 16.6523 12.5379 16.4585C12.5033 16.2647 12.3938 16.0927 12.2335 15.9803L12.1683 15.9347C12.0079 15.8223 11.8099 15.7787 11.6177 15.8136C11.4254 15.8485 11.2548 15.9589 11.1434 16.1206L10.4019 17.1963C10.2905 17.358 10.2473 17.5578 10.2819 17.7516C10.3164 17.9454 10.426 18.1174 10.5863 18.2298L10.6515 18.2754C10.8119 18.3878 11.0099 18.4314 11.2021 18.3965C11.3943 18.3616 11.5649 18.2512 11.6764 18.0895L12.4179 17.0138ZM14.6255 17.5838C14.6645 17.5264 14.6919 17.4618 14.7061 17.3937C14.7203 17.3255 14.7211 17.2553 14.7084 17.1869C14.6957 17.1185 14.6698 17.0532 14.6321 16.9949C14.5944 16.9366 14.5457 16.8864 14.4887 16.847L14.4478 16.8188C14.3328 16.7394 14.1912 16.7093 14.0542 16.7352C13.9171 16.761 13.7959 16.8407 13.7172 16.9567L13.1232 17.8313C13.0842 17.8887 13.0568 17.9533 13.0426 18.0214C13.0284 18.0896 13.0276 18.1598 13.0403 18.2282C13.053 18.2966 13.0789 18.3619 13.1166 18.4202C13.1543 18.4785 13.203 18.5287 13.26 18.5681L13.3009 18.5963C13.4159 18.6757 13.5575 18.7058 13.6945 18.6799C13.8316 18.6541 13.9528 18.5744 14.0315 18.4584L14.6255 17.5838Z" fill="black"/>
</svg>
