<svg width="30" height="38" viewBox="0 0 30 38" fill="none" xmlns="http://www.w3.org/2000/svg">
<circle cx="23" cy="7" r="7" fill="#C3A66D"/>
<path d="M13.5 38C15.3562 38 16.875 36.4308 16.875 34.5128H10.125C10.125 36.4308 11.6438 38 13.5 38ZM23.625 27.5385V18.8205C23.625 13.4677 20.8744 8.98667 16.0312 7.80103V6.61538C16.0312 5.16821 14.9006 4 13.5 4C12.0994 4 10.9688 5.16821 10.9688 6.61538V7.80103C6.1425 8.98667 3.375 13.4503 3.375 18.8205V27.5385L0 31.0256V32.7692H27V31.0256L23.625 27.5385ZM20.25 29.2821H6.75V18.8205C6.75 14.4964 9.29813 10.9744 13.5 10.9744C17.7019 10.9744 20.25 14.4964 20.25 18.8205V29.2821Z" fill="#3F3E3D"/>
</svg>
