<svg width="31" height="30" viewBox="0 0 31 30" fill="none" xmlns="http://www.w3.org/2000/svg">
<path d="M15.5078 17.3438C18.8733 17.3438 21.6016 14.6155 21.6016 11.25C21.6016 7.88451 18.8733 5.15625 15.5078 5.15625C12.1423 5.15625 9.41406 7.88451 9.41406 11.25C9.41406 14.6155 12.1423 17.3438 15.5078 17.3438Z" stroke="black" stroke-width="1.5" stroke-linecap="round" stroke-linejoin="round"/>
<path d="M5.62012 26.7538C5.62012 26.7538 6.47579 22.0046 8.71927 20.0984C10.8704 18.2706 14.1297 17.3438 14.1297 17.3438" stroke="black" stroke-width="1.5" stroke-linecap="round"/>
<path d="M29.5449 23.25C29.5449 25.0402 28.8338 26.7571 27.5679 28.023C26.302 29.2888 24.5851 30 22.7949 30C21.0047 30 19.2878 29.2888 18.022 28.023C16.7561 26.7571 16.0449 25.0402 16.0449 23.25C16.0449 21.4598 16.7561 19.7429 18.022 18.477C19.2878 17.2112 21.0047 16.5 22.7949 16.5C24.5851 16.5 26.302 17.2112 27.5679 18.477C28.8338 19.7429 29.5449 21.4598 29.5449 23.25ZM23.5089 19.29C23.4656 19.1339 23.3723 18.9963 23.2434 18.8983C23.1144 18.8003 22.9569 18.7472 22.7949 18.7472C22.6329 18.7472 22.4754 18.8003 22.3465 18.8983C22.2175 18.9963 22.1242 19.1339 22.0809 19.29L21.3654 21.588H19.0449C18.3189 21.588 18.0159 22.5585 18.6039 23.004L20.4789 24.4245L19.7634 26.7225C19.5384 27.4425 20.3304 28.0425 20.9184 27.597L22.7934 26.1765L24.6684 27.597C25.2564 28.0425 26.0484 27.4425 25.8234 26.7225L25.1079 24.4245L26.9829 23.004C27.5709 22.5585 27.2679 21.588 26.5419 21.588H24.2244L23.5074 19.2915L23.5089 19.29Z" fill="black"/>
</svg>
