<svg width="23" height="24" viewBox="0 0 23 24" fill="none" xmlns="http://www.w3.org/2000/svg">
<path d="M12.7049 1.13715L12.7049 1.13717L21.0085 7.79822C21.2316 7.97726 21.4117 8.20413 21.5355 8.46208C21.6592 8.72003 21.7235 9.00248 21.7235 9.28858V21.3743C21.7235 21.8811 21.5222 22.367 21.1639 22.7254C20.8055 23.0837 20.3195 23.285 19.8128 23.285H17.1342C16.6275 23.285 16.1415 23.0837 15.7831 22.7254C15.4248 22.367 15.2235 21.8811 15.2235 21.3743V15.4814C15.2235 14.466 14.3996 13.6422 13.3842 13.6422H9.63421C8.61878 13.6422 7.79492 14.466 7.79492 15.4814V21.3743C7.79492 21.8811 7.59361 22.367 7.23529 22.7254C6.87696 23.0837 6.39096 23.285 5.88421 23.285H3.20564C2.69888 23.285 2.21289 23.0837 1.85456 22.7254C1.49623 22.367 1.29492 21.8811 1.29492 21.3743V9.28858C1.29492 9.00248 1.35917 8.72003 1.48293 8.46208C1.60669 8.20413 1.78679 7.97726 2.00995 7.79822L10.3135 1.13717L10.3135 1.13715C10.6527 0.865077 11.0744 0.716797 11.5092 0.716797C11.944 0.716797 12.3658 0.865077 12.7049 1.13715Z" stroke="black"/>
</svg>
