<svg width="27" height="28" viewBox="0 0 27 28" fill="none" xmlns="http://www.w3.org/2000/svg">
<path d="M24.7578 8.375L19.7578 10.875M19.7578 10.875L19.1328 11.1875L13.5078 14M19.7578 10.875V15.25M19.7578 10.875L7.88281 4.625M13.5078 14L2.25781 8.375M13.5078 14V25.875M17.9803 3.2275L20.4803 4.54C23.1691 5.95125 24.5141 6.65625 25.2616 7.925C26.0078 9.1925 26.0078 10.7712 26.0078 13.925V14.0712C26.0078 17.2275 26.0078 18.8062 25.2616 20.0737C24.5141 21.3425 23.1691 22.0488 20.4803 23.46L17.9803 24.7713C15.7853 25.9238 14.6878 26.5 13.5078 26.5C12.3278 26.5 11.2303 25.925 9.03531 24.7725L6.53531 23.46C3.84656 22.0488 2.50156 21.3438 1.75406 20.075C1.00781 18.8075 1.00781 17.2288 1.00781 14.075V13.9288C1.00781 10.7725 1.00781 9.19375 1.75406 7.92625C2.50156 6.6575 3.84656 5.95125 6.53531 4.54125L9.03531 3.22875C11.2303 2.07625 12.3278 1.5 13.5078 1.5C14.6878 1.5 15.7853 2.075 17.9803 3.2275Z" stroke="black" stroke-width="1.2" stroke-linecap="round"/>
</svg>
