<svg width="27" height="20" viewBox="0 0 27 20" fill="none" xmlns="http://www.w3.org/2000/svg">
<path d="M13.1598 19.655L0.527348 7.355C0.444196 7.27466 0.391779 7.16748 0.379016 7.05171C0.366253 6.93593 0.393934 6.81871 0.457348 6.72L4.45735 0.512502C4.49724 0.451117 4.55152 0.400669 4.61526 0.365741C4.679 0.330813 4.75019 0.312513 4.82235 0.312502H13.5723C13.6376 0.312424 13.702 0.327504 13.7605 0.356562C13.8191 0.385619 13.8702 0.427868 13.9098 0.480002L18.1373 5.9975C18.199 6.07584 18.2557 6.0725 18.3073 5.9875L21.1098 1.49C21.1204 1.47224 21.1261 1.452 21.1263 1.43134C21.1266 1.41068 21.1213 1.39033 21.1112 1.37232C21.1011 1.35432 21.0863 1.33931 21.0686 1.32881C21.0508 1.31831 21.0305 1.31268 21.0098 1.3125L19.0698 1.31C19.0123 1.30997 18.9555 1.2972 18.9034 1.27261C18.8514 1.24801 18.8054 1.21221 18.7689 1.16776C18.7323 1.12331 18.706 1.07132 18.6919 1.01552C18.6778 0.959713 18.6763 0.901482 18.6873 0.845002L18.7598 0.462502C18.7685 0.420019 18.7914 0.381853 18.8247 0.354503C18.858 0.327153 18.8996 0.31231 18.9423 0.312502H22.2673C22.3166 0.312559 22.365 0.324942 22.4083 0.348523C22.4515 0.372103 22.4881 0.406131 22.5148 0.447502L26.5673 6.74C26.6273 6.83309 26.653 6.94417 26.6403 7.05442C26.6275 7.16468 26.577 7.26734 26.4973 7.345L13.8473 19.655C13.7554 19.7446 13.632 19.7948 13.5036 19.7948C13.3752 19.7948 13.2518 19.7446 13.1598 19.655ZM5.08235 1.4025L1.90235 6.32C1.89116 6.33782 1.88495 6.35831 1.88439 6.37934C1.88382 6.40038 1.88891 6.42117 1.89913 6.43957C1.90935 6.45796 1.92432 6.47327 1.94247 6.4839C1.96063 6.49453 1.98131 6.50009 2.00235 6.5H7.63235C7.65198 6.50001 7.67132 6.49486 7.68835 6.48508C7.70538 6.47531 7.71948 6.46126 7.72918 6.44442C7.73888 6.42757 7.74383 6.40853 7.74351 6.38929C7.74318 6.37004 7.7376 6.3513 7.72735 6.335C7.32735 5.67667 6.91318 5.01083 6.48485 4.3375C6.25485 3.98 6.20485 3.48 6.73235 3.4075C6.82862 3.39418 6.92676 3.40903 7.015 3.45027C7.10324 3.49151 7.17784 3.55739 7.22985 3.64L8.69985 5.99C8.75151 6.07334 8.80735 6.07584 8.86735 5.9975L12.3448 1.475C12.3565 1.46024 12.3637 1.44248 12.3655 1.42376C12.3674 1.40504 12.3638 1.38611 12.3552 1.36916C12.3466 1.3522 12.3333 1.33789 12.3169 1.32787C12.3004 1.31785 12.2816 1.31252 12.2623 1.3125H5.24735C5.17568 1.3125 5.12068 1.3425 5.08235 1.4025ZM9.89485 6.3025C9.88091 6.32049 9.87227 6.34201 9.86987 6.36463C9.86748 6.38726 9.87144 6.41011 9.8813 6.43062C9.89116 6.45112 9.90654 6.46847 9.92572 6.48073C9.94489 6.49299 9.9671 6.49966 9.98985 6.5H17.0198C17.0426 6.49966 17.0648 6.49299 17.084 6.48073C17.1032 6.46847 17.1185 6.45112 17.1284 6.43062C17.1383 6.41011 17.1422 6.38726 17.1398 6.36463C17.1374 6.34201 17.1288 6.32049 17.1148 6.3025L13.6023 1.73C13.5909 1.71498 13.5762 1.7028 13.5593 1.69441C13.5423 1.68603 13.5237 1.68166 13.5048 1.68166C13.486 1.68166 13.4673 1.68603 13.4504 1.69441C13.4335 1.7028 13.4188 1.71498 13.4073 1.73L9.89485 6.3025ZM22.3673 7.0975C22.2598 7.5275 21.7448 7.52 21.3798 7.505C20.7165 7.47667 19.8373 7.48 18.7423 7.515C18.6573 7.51834 18.599 7.56 18.5673 7.64L14.8673 17.14C14.862 17.1509 14.8608 17.1634 14.8639 17.1751C14.8671 17.1868 14.8744 17.197 14.8845 17.2037C14.8946 17.2104 14.9068 17.2133 14.9188 17.2117C14.9308 17.2101 14.9419 17.2041 14.9498 17.195L25.3748 7.0425C25.4088 7.00955 25.4301 6.96576 25.4351 6.91872C25.4402 6.87169 25.4286 6.82438 25.4023 6.785L22.2273 1.85C22.2181 1.83579 22.2055 1.82407 22.1906 1.81595C22.1758 1.80782 22.1592 1.80356 22.1424 1.80356C22.1257 1.80356 22.1093 1.80782 22.0949 1.81595C22.0804 1.82407 22.0684 1.83579 22.0598 1.85L19.2773 6.32C19.2662 6.33782 19.26 6.35831 19.2594 6.37934C19.2588 6.40038 19.2639 6.42117 19.2741 6.43957C19.2843 6.45796 19.2993 6.47327 19.3175 6.4839C19.3356 6.49453 19.3563 6.50009 19.3773 6.5H21.9548C22.0432 6.5001 22.1273 6.5332 22.1898 6.5925C22.3548 6.74417 22.414 6.9125 22.3673 7.0975ZM2.25485 7.6425L13.1623 18.2625C13.179 18.2785 13.1992 18.2901 13.2214 18.2964C13.2436 18.3026 13.267 18.3033 13.2895 18.2984C13.312 18.2934 13.3329 18.283 13.3504 18.268C13.3679 18.253 13.3815 18.234 13.3898 18.2125L17.4448 7.7575C17.4563 7.72827 17.4604 7.69669 17.4568 7.66552C17.4532 7.63434 17.442 7.60452 17.4243 7.57864C17.4065 7.55276 17.3827 7.53161 17.3549 7.51703C17.3272 7.50245 17.2962 7.49489 17.2648 7.495L9.63235 7.5025C9.61352 7.5024 9.59495 7.50692 9.57828 7.51566C9.56161 7.52441 9.54734 7.53712 9.53672 7.55267C9.52611 7.56822 9.51947 7.58614 9.5174 7.60486C9.51533 7.62357 9.51789 7.64251 9.52485 7.66C10.2415 9.49167 10.9573 11.3383 11.6723 13.2C11.8398 13.6375 11.7248 13.96 11.2273 13.995C11.1398 14.0015 11.0525 13.9798 10.9782 13.933C10.904 13.8862 10.8467 13.8168 10.8148 13.735L8.44485 7.6225C8.41318 7.54084 8.35318 7.5 8.26485 7.5H2.31235C2.29575 7.49982 2.27949 7.50466 2.26568 7.51387C2.25188 7.52308 2.24117 7.53624 2.23496 7.55163C2.22875 7.56702 2.22733 7.58392 2.23087 7.60013C2.23442 7.61635 2.24278 7.63111 2.25485 7.6425Z" fill="black"/>
</svg>
