<svg width="31" height="30" viewBox="0 0 31 30" fill="none" xmlns="http://www.w3.org/2000/svg">
<mask id="path-1-inside-1_5648_397" fill="white">
<path d="M13.8208 2.01205V2.01843C13.7467 2.00591 13.6709 2.00591 13.5967 2.01843C13.4027 2.05304 13.3399 2.125 13.2643 2.18603C13.1883 2.249 13.1165 2.31686 13.0493 2.38916C12.9081 2.53764 12.7596 2.71526 12.613 2.89015C12.4672 3.06596 12.3215 3.23994 12.2076 3.36564C12.1705 3.40648 12.1319 3.44598 12.0919 3.48406C12.0491 3.48406 11.999 3.47495 11.9298 3.46675C11.7631 3.44398 11.5427 3.40481 11.3177 3.36564C11.0936 3.32648 10.8668 3.2864 10.6637 3.26453C10.566 3.25281 10.4678 3.24733 10.3694 3.24814C10.2729 3.24814 10.1772 3.23812 10.0069 3.33741C9.83656 3.43669 9.80195 3.52414 9.75185 3.60794C9.70266 3.69174 9.66167 3.77646 9.62068 3.87119C9.5387 4.05884 9.45672 4.27745 9.37838 4.49333C9.30005 4.70922 9.22353 4.92237 9.15977 5.08086C9.13244 5.14736 9.10967 5.19655 9.09054 5.23572C9.03753 5.25101 8.98406 5.26468 8.93022 5.27671C8.76626 5.31314 8.54582 5.35231 8.32174 5.39239C8.09766 5.43247 7.86902 5.47437 7.67045 5.52356C7.57207 5.54815 7.48007 5.57366 7.38989 5.60918C7.2988 5.64471 7.20589 5.66384 7.08019 5.81505C6.95448 5.96626 6.95266 6.06099 6.93444 6.15663C6.91623 6.25228 6.9053 6.3461 6.89801 6.44812C6.88526 6.65398 6.88526 6.88717 6.88434 7.11763C6.88434 7.34809 6.88434 7.5749 6.87706 7.74615C6.87432 7.81902 6.86795 7.87094 6.86339 7.91467C6.82878 7.94017 6.78688 7.97205 6.72676 8.01122C6.58375 8.10231 6.38791 8.21526 6.19024 8.33095C5.99349 8.44663 5.79491 8.56505 5.62548 8.67982C5.54339 8.73389 5.46489 8.79322 5.39047 8.85744C5.3176 8.92212 5.23744 8.97222 5.17186 9.15622C5.10536 9.34022 5.1336 9.4304 5.14817 9.52695C5.16275 9.6226 5.18734 9.7146 5.21558 9.81298C5.27206 10.0106 5.35039 10.2302 5.42782 10.446C5.50433 10.6628 5.58085 10.876 5.63186 11.0381C5.65372 11.1083 5.6683 11.1602 5.67832 11.2021C5.65463 11.2385 5.62366 11.285 5.57812 11.3433C5.47519 11.4781 5.33218 11.6503 5.18552 11.827C5.03978 12.0037 4.89312 12.184 4.77288 12.3498C4.71412 12.4288 4.66057 12.5116 4.61257 12.5976C4.56611 12.6832 4.50781 12.7579 4.50781 12.9528C4.50781 13.1478 4.56611 13.2234 4.61257 13.309C4.65902 13.3946 4.71276 13.473 4.77288 13.5559C4.89312 13.7225 5.03978 13.902 5.18552 14.0796C5.33126 14.2563 5.47519 14.4285 5.57903 14.5624C5.62275 14.6216 5.65463 14.6672 5.67832 14.7036C5.66513 14.7588 5.64994 14.8135 5.63277 14.8675C5.58085 15.0297 5.50525 15.2437 5.42782 15.4596C5.35039 15.6755 5.27297 15.8941 5.21558 16.0918C5.18705 16.1862 5.16453 16.2824 5.14817 16.3796C5.1336 16.4762 5.10536 16.5655 5.17095 16.7495C5.23744 16.9335 5.31669 16.9845 5.38956 17.0482C5.46243 17.1129 5.53986 17.1694 5.62457 17.2268C5.79491 17.3415 5.99349 17.46 6.19024 17.5756C6.38791 17.6913 6.58375 17.8034 6.72585 17.8945C6.78688 17.9318 6.82878 17.9637 6.86248 17.9901C6.86795 18.0338 6.87432 18.0876 6.87706 18.1604C6.88434 18.3317 6.88434 18.5585 6.88434 18.789C6.88434 19.0185 6.88434 19.2499 6.89892 19.4557C6.90529 19.5587 6.91532 19.6534 6.93444 19.749C6.95266 19.8447 6.95448 19.9403 7.08019 20.0906C7.20589 20.2418 7.2988 20.2619 7.38989 20.2974C7.48098 20.3329 7.57207 20.3603 7.67045 20.3849C7.86902 20.434 8.09857 20.4759 8.32174 20.516C8.54582 20.5561 8.76535 20.5953 8.93022 20.6317C8.99945 20.6472 9.04955 20.6609 9.09054 20.6727C9.10967 20.7119 9.13244 20.7611 9.15977 20.8276C9.20167 20.9287 9.25177 21.0717 9.30096 21.2047L6.89528 25.3019C6.8459 25.3856 6.82262 25.4822 6.82839 25.5793C6.83416 25.6763 6.86872 25.7695 6.92767 25.8468C6.98661 25.9241 7.06727 25.9821 7.15933 26.0134C7.2514 26.0447 7.3507 26.0478 7.44455 26.0224L9.64527 25.4321L10.2364 27.6347C10.2619 27.7276 10.3143 27.8109 10.387 27.8742C10.4597 27.9375 10.5494 27.9779 10.6449 27.9903C10.7405 28.0028 10.8376 27.9867 10.924 27.9442C11.0105 27.9017 11.0825 27.8346 11.1309 27.7513L13.4009 23.8217C13.4492 23.849 13.5066 23.8736 13.5967 23.8891C13.7917 23.9237 13.8755 23.8781 13.9675 23.8463C14.0586 23.8144 14.146 23.7761 14.2371 23.7306C14.4211 23.6395 14.6215 23.5247 14.8201 23.4109C15.0168 23.2961 15.2109 23.1822 15.3602 23.103C15.4231 23.0702 15.4686 23.0474 15.5078 23.0301C15.547 23.0474 15.5934 23.0702 15.6554 23.103C15.8048 23.1822 15.9988 23.2961 16.1965 23.4109C16.3941 23.5247 16.5945 23.6404 16.7785 23.7306C16.8696 23.7761 16.9561 23.8144 17.0481 23.8463C17.1401 23.8781 17.2239 23.9237 17.4189 23.8891C17.487 23.8783 17.5527 23.8555 17.6129 23.8217L19.881 27.7513C19.9295 27.8346 20.0015 27.9017 20.0879 27.9442C20.1744 27.9867 20.2715 28.0028 20.367 27.9903C20.4626 27.9779 20.5523 27.9375 20.625 27.8742C20.6977 27.8109 20.75 27.7276 20.7755 27.6347L21.3667 25.434L23.5656 26.0242C23.6593 26.0491 23.7584 26.0456 23.8501 26.0142C23.9418 25.9827 24.0221 25.9246 24.0808 25.8474C24.1395 25.7702 24.1739 25.6773 24.1796 25.5805C24.1854 25.4837 24.1622 25.3873 24.1131 25.3037L21.7128 21.2119C21.7629 21.0753 21.813 20.9305 21.8559 20.8276C21.8832 20.7611 21.906 20.7119 21.9251 20.6727C21.9661 20.6609 22.0162 20.6472 22.0854 20.6317C22.2494 20.5953 22.4698 20.557 22.6939 20.516C22.918 20.4759 23.1466 20.434 23.3452 20.3849C23.4405 20.3619 23.5342 20.3327 23.6257 20.2974C23.7168 20.261 23.8097 20.2418 23.9354 20.0906C24.0611 19.9394 24.063 19.8447 24.0812 19.749C24.0994 19.6534 24.1103 19.5578 24.1176 19.4557C24.1304 19.2499 24.1304 19.0185 24.1313 18.789C24.1313 18.5585 24.1313 18.3317 24.1386 18.1604C24.1413 18.0876 24.1477 18.0329 24.1522 17.9901C24.1868 17.9646 24.2287 17.9327 24.2889 17.8935C24.4319 17.8025 24.6259 17.6913 24.8236 17.5747C25.0203 17.46 25.2198 17.3415 25.3883 17.2268C25.4739 17.1694 25.5514 17.1129 25.6233 17.0482C25.6962 16.9845 25.7764 16.9335 25.8419 16.7495C25.9084 16.5655 25.8802 16.4762 25.8656 16.3796C25.8493 16.2824 25.8268 16.1862 25.7982 16.0918C25.734 15.8789 25.6632 15.6681 25.586 15.4596C25.5146 15.2634 25.4466 15.0661 25.3819 14.8675C25.3648 14.8135 25.3496 14.7588 25.3364 14.7036C25.3592 14.6672 25.3911 14.6216 25.4348 14.5633C25.5386 14.4285 25.6825 14.2563 25.8283 14.0796C25.974 13.9029 26.1225 13.7225 26.2427 13.5559C26.3029 13.4739 26.3566 13.3946 26.4031 13.309C26.4495 13.2234 26.5078 13.1487 26.5078 12.9538C26.5078 12.7579 26.4495 12.6823 26.4031 12.5976C26.3551 12.5116 26.3015 12.4288 26.2427 12.3498C26.1225 12.184 25.974 12.0037 25.8283 11.827C25.6825 11.6503 25.5386 11.4763 25.4348 11.3415C25.4001 11.2962 25.367 11.2497 25.3355 11.2021C25.3455 11.1593 25.3601 11.1083 25.381 11.0381C25.433 10.876 25.5086 10.6628 25.586 10.446C25.6634 10.2302 25.7408 10.0106 25.7982 9.81298C25.8265 9.7146 25.8511 9.6226 25.8656 9.52695C25.8802 9.4304 25.9084 9.34022 25.8429 9.15622C25.7764 8.97313 25.6971 8.92212 25.6242 8.85744C25.5499 8.79314 25.4714 8.7338 25.3892 8.67982C25.2043 8.55768 25.0157 8.44133 24.8236 8.33095C24.6259 8.21526 24.4319 8.10231 24.2898 8.01122C24.243 7.98075 24.1975 7.94854 24.1531 7.91467C24.1477 7.87094 24.1413 7.81811 24.1386 7.74615C24.1313 7.5749 24.1313 7.34809 24.1313 7.11763C24.1313 6.88717 24.1313 6.65398 24.1167 6.44903C24.1111 6.35121 24.0992 6.25385 24.0812 6.15754C24.063 6.0619 24.0611 5.96626 23.9354 5.81505C23.8097 5.66384 23.7168 5.64471 23.6257 5.60918C23.5346 5.57275 23.4436 5.54815 23.3452 5.52356C23.1295 5.47314 22.9123 5.4294 22.6939 5.39239C22.4698 5.35231 22.2503 5.31223 22.0854 5.27671C22.0316 5.26468 21.9781 5.25101 21.9251 5.23572C21.9002 5.18491 21.8771 5.13327 21.8559 5.08086C21.7921 4.92237 21.7156 4.70922 21.6372 4.49333C21.5629 4.28351 21.4821 4.07603 21.3949 3.87119C21.3566 3.78039 21.3125 3.69216 21.2629 3.60703C21.2137 3.52505 21.1782 3.43578 21.0087 3.33741C20.8384 3.23721 20.7427 3.24996 20.6462 3.24814C20.5487 3.24814 20.454 3.25725 20.352 3.26453C20.1488 3.2864 19.922 3.32647 19.6979 3.36473C19.4729 3.40481 19.2525 3.44489 19.0858 3.46675C19.0166 3.47586 18.9665 3.48133 18.9237 3.48497C18.8837 3.44655 18.8452 3.40675 18.808 3.36564C18.6702 3.20946 18.5351 3.05094 18.4026 2.89015C18.256 2.71526 18.1057 2.5349 17.9654 2.38734C17.8986 2.31556 17.8271 2.24831 17.7514 2.18603C17.6757 2.125 17.6138 2.05122 17.4189 2.0166C17.2239 1.98199 17.1401 2.02571 17.0481 2.05759C16.9571 2.08948 16.8696 2.13047 16.7785 2.17601C16.5945 2.2671 16.3941 2.38096 16.1955 2.49483C15.9988 2.61051 15.8048 2.72437 15.6554 2.80362C15.5934 2.83641 15.547 2.85554 15.5078 2.87285C15.4686 2.85463 15.4231 2.83641 15.3602 2.80362C15.2109 2.72437 15.0168 2.61051 14.8192 2.49574C14.6285 2.38283 14.4344 2.2759 14.2371 2.1751C14.1498 2.13021 14.0598 2.09096 13.9675 2.05759C13.9219 2.04211 13.8773 2.02298 13.8208 2.01205ZM13.7644 2.97214C13.7889 2.98307 13.8035 2.98671 13.8336 3.00128C13.9766 3.07233 14.167 3.17982 14.3619 3.29277C14.5568 3.40572 14.7554 3.52232 14.933 3.61614C15.0223 3.66351 15.1061 3.70723 15.189 3.74093C15.2737 3.77555 15.3411 3.81563 15.5078 3.81563C15.6745 3.81563 15.7401 3.77555 15.8248 3.74093C15.9118 3.7034 15.9969 3.66176 16.0799 3.61614C16.2584 3.52232 16.4588 3.40572 16.6537 3.29277C16.8487 3.17982 17.039 3.07142 17.182 3.00128C17.2121 2.9858 17.2267 2.98307 17.2513 2.97214C17.2713 2.99126 17.2832 2.99946 17.3059 3.02406C17.4171 3.13974 17.561 3.31008 17.7049 3.48315C17.8506 3.65622 17.9964 3.83476 18.1321 3.98414C18.1995 4.05975 18.2624 4.12624 18.3298 4.18727C18.3963 4.24921 18.4455 4.30933 18.6012 4.36763C18.7579 4.42502 18.8344 4.41044 18.9255 4.4068C19.0166 4.4068 19.1086 4.39314 19.2079 4.37947C19.4083 4.35215 19.6351 4.31115 19.8555 4.2729C20.0769 4.23373 20.2937 4.19729 20.4522 4.17999C20.4859 4.17999 20.4995 4.1809 20.5269 4.17088L20.5606 4.24284C20.6243 4.3904 20.7036 4.599 20.781 4.81215C20.8584 5.0253 20.9359 5.24391 21.0124 5.43156C21.0506 5.52447 21.088 5.6101 21.1299 5.69116C21.1718 5.77223 21.1973 5.84511 21.3239 5.95259C21.4505 6.06008 21.527 6.07192 21.6136 6.10016C21.7001 6.12749 21.7894 6.15117 21.8868 6.17303C22.0845 6.21675 22.3104 6.25501 22.5317 6.296C22.7531 6.33608 22.969 6.37525 23.1238 6.41351C23.1584 6.42262 23.1721 6.42899 23.1985 6.43628C23.2022 6.46452 23.2049 6.48 23.2076 6.51644C23.2186 6.67767 23.2195 6.89902 23.2204 7.12674C23.2204 7.35355 23.2204 7.58583 23.2295 7.78805C23.2331 7.89007 23.2386 7.98298 23.2504 8.07316C23.2623 8.16334 23.2623 8.24077 23.3452 8.38469C23.4272 8.5277 23.4937 8.56687 23.5656 8.62243C23.6367 8.67891 23.7132 8.73174 23.7988 8.7864C23.9682 8.8957 24.1686 9.01048 24.3626 9.12434C24.5567 9.2382 24.7452 9.35206 24.8782 9.44133C24.9083 9.46137 24.9192 9.4723 24.942 9.48961C24.9356 9.51693 24.9329 9.53333 24.9228 9.56886C24.8782 9.72371 24.8044 9.93413 24.7288 10.1473C24.6523 10.3604 24.574 10.5772 24.5139 10.7703C24.4841 10.8611 24.4585 10.9532 24.4373 11.0463C24.4182 11.1356 24.3918 11.2076 24.4191 11.3697C24.4474 11.5318 24.4975 11.591 24.5457 11.6685C24.594 11.7459 24.6496 11.8233 24.7115 11.9035C24.8336 12.0638 24.9811 12.2405 25.126 12.4136C25.2699 12.5885 25.4102 12.7606 25.5049 12.8909C25.5268 12.921 25.535 12.9364 25.5505 12.9601C25.535 12.9847 25.5268 12.9993 25.5049 13.0294C25.4102 13.1596 25.2699 13.33 25.126 13.5048C24.9811 13.6788 24.8345 13.8565 24.7115 14.0168C24.6496 14.0969 24.5931 14.1716 24.5457 14.2481C24.4975 14.3256 24.4474 14.3884 24.4191 14.5506C24.3918 14.7127 24.4182 14.7856 24.4373 14.8748C24.4556 14.9641 24.4829 15.0515 24.5139 15.1481C24.5749 15.3412 24.6523 15.5598 24.7288 15.773C24.8053 15.9861 24.8782 16.1965 24.9228 16.3514C24.9329 16.3869 24.9356 16.4033 24.942 16.4316C24.9192 16.4489 24.9083 16.4589 24.8782 16.4789C24.7095 16.5897 24.5376 16.6954 24.3626 16.7959C24.1686 16.9098 23.9682 17.0255 23.7979 17.1339C23.7132 17.1885 23.6367 17.2395 23.5656 17.296C23.4937 17.3525 23.4272 17.3907 23.3452 17.5347C23.2632 17.6777 23.2632 17.7533 23.2504 17.8444C23.239 17.9393 23.232 18.0348 23.2295 18.1304C23.2204 18.3326 23.2204 18.5631 23.2204 18.7908C23.2204 19.0176 23.2186 19.2389 23.2076 19.4011C23.2049 19.4375 23.2022 19.453 23.1985 19.4831C23.1712 19.4922 23.1584 19.4967 23.1238 19.5058C22.969 19.5441 22.7531 19.5851 22.5317 19.6243C22.3104 19.6652 22.0845 19.7044 21.8877 19.7472C21.7956 19.7665 21.7044 19.7902 21.6145 19.8183C21.527 19.8465 21.4505 19.8602 21.323 19.9686C21.1973 20.0751 21.1718 20.1489 21.1299 20.23C21.0867 20.3147 21.0475 20.4013 21.0124 20.4896C20.9359 20.6773 20.8584 20.8959 20.781 21.109C20.7036 21.3213 20.6252 21.528 20.5606 21.6756C20.546 21.7093 20.5378 21.7211 20.5241 21.7476C20.4986 21.7476 20.485 21.7476 20.4513 21.7384C20.2518 21.7132 20.0532 21.6823 19.8555 21.6455C19.6351 21.6064 19.4074 21.5654 19.2088 21.539C19.1149 21.525 19.0203 21.5156 18.9255 21.5107C18.8344 21.5107 18.7579 21.4961 18.6012 21.5535C18.4455 21.6109 18.3963 21.6701 18.3298 21.7312C18.2608 21.7964 18.1948 21.8648 18.1321 21.9361C17.9964 22.0855 17.8497 22.264 17.7049 22.4371C17.5601 22.6102 17.4171 22.7769 17.3068 22.8926L17.2522 22.9481C17.2267 22.9372 17.2121 22.9326 17.182 22.9181C17.0032 22.8253 16.827 22.7275 16.6537 22.6248C16.4588 22.5118 16.2584 22.3952 16.0799 22.3005C15.9969 22.2552 15.9118 22.2142 15.8248 22.1775C15.7401 22.1429 15.6745 22.1028 15.5078 22.1028C15.3411 22.1028 15.2737 22.1429 15.189 22.1775C15.102 22.215 15.0169 22.2567 14.9339 22.3023C14.7554 22.397 14.5568 22.5136 14.3619 22.6257C14.167 22.7386 13.9766 22.847 13.8336 22.9171C13.8035 22.9326 13.7889 22.9372 13.7644 22.9481C13.7443 22.929 13.7325 22.9181 13.7097 22.8935C13.5986 22.7769 13.4546 22.6111 13.3107 22.438C13.165 22.2649 13.0192 22.0855 12.8835 21.9361C12.8208 21.8648 12.7548 21.7964 12.6859 21.7312C12.6194 21.6701 12.5702 21.6109 12.4144 21.5535C12.2577 21.4961 12.1812 21.5071 12.0901 21.5107C11.999 21.5107 11.907 21.5253 11.8077 21.539C11.6073 21.5663 11.3805 21.6073 11.1601 21.6455C10.9387 21.6847 10.722 21.7211 10.5635 21.7384C10.5307 21.7384 10.5179 21.7384 10.4906 21.7476C10.4778 21.7221 10.4696 21.7102 10.4551 21.6765C10.3913 21.528 10.3121 21.3213 10.2346 21.1081C10.1572 20.8959 10.0798 20.6773 10.0033 20.4887C9.96816 20.4007 9.92894 20.3143 9.88575 20.23C9.84385 20.148 9.81835 20.0751 9.69173 19.9677C9.56512 19.8602 9.4886 19.8465 9.40207 19.8183C9.31217 19.7902 9.22097 19.7665 9.1288 19.7472C8.93113 19.7035 8.70523 19.6652 8.48388 19.6252C8.26253 19.5851 8.04665 19.5432 7.8918 19.5058C7.85718 19.4967 7.84352 19.4913 7.8171 19.4822C7.81346 19.453 7.81073 19.4366 7.80799 19.4002C7.79706 19.2389 7.79615 19.0176 7.79524 18.7899C7.79524 18.5631 7.79524 18.3326 7.78613 18.1304C7.78359 18.0345 7.77659 17.9387 7.76518 17.8434C7.75334 17.7533 7.75334 17.6777 7.67045 17.5337C7.58847 17.3907 7.52197 17.3516 7.45001 17.296C7.37436 17.2382 7.29592 17.1841 7.215 17.1339C7.04557 17.0255 6.84609 16.9098 6.65116 16.7968C6.45713 16.6821 6.26858 16.5691 6.13559 16.4789C6.10553 16.4589 6.0946 16.4489 6.07182 16.4316C6.0782 16.4033 6.08093 16.386 6.09095 16.3514C6.13559 16.1965 6.20937 15.9861 6.28497 15.773C6.36149 15.5598 6.43983 15.3412 6.49995 15.1481C6.53092 15.0515 6.55733 14.9641 6.57646 14.8748C6.59559 14.7856 6.62201 14.7127 6.59468 14.5506C6.56644 14.3884 6.51634 14.3256 6.46806 14.2481C6.41681 14.1684 6.36179 14.0912 6.30319 14.0168C6.18022 13.8565 6.03174 13.6797 5.88782 13.5048C5.74481 13.3309 5.60544 13.1596 5.51071 13.0294C5.48885 12.9993 5.48065 12.9847 5.46517 12.9601C5.48065 12.9355 5.48885 12.921 5.51071 12.8909C5.60544 12.7606 5.74481 12.5885 5.88782 12.4145C6.03174 12.2396 6.17931 12.062 6.30319 11.9017C6.36422 11.8215 6.41979 11.7459 6.46806 11.6685C6.51634 11.591 6.56644 11.5318 6.59468 11.3697C6.62292 11.2076 6.59559 11.1347 6.57646 11.0463C6.55529 10.9532 6.52976 10.8611 6.49995 10.7703C6.43892 10.5772 6.36149 10.3604 6.28497 10.1473C6.21475 9.95638 6.15005 9.76349 6.09095 9.56886C6.08093 9.53333 6.0782 9.51785 6.07182 9.48961C6.0946 9.47139 6.10553 9.46137 6.13559 9.44133C6.26767 9.35024 6.45713 9.2382 6.65116 9.12434C6.84609 9.01048 7.04557 8.89479 7.21591 8.78731C7.30063 8.73265 7.37896 8.67891 7.45001 8.62334C7.52197 8.56596 7.58847 8.5277 7.67045 8.38469C7.75243 8.24077 7.75243 8.16334 7.76518 8.07316C7.77702 7.98207 7.78249 7.89007 7.78613 7.78805C7.79524 7.58583 7.79524 7.35355 7.79524 7.12674C7.79524 6.89902 7.79706 6.67767 7.80799 6.51644C7.80982 6.48 7.81346 6.46543 7.8171 6.43628C7.84443 6.42717 7.85718 6.42171 7.8918 6.41351C8.04665 6.37525 8.26253 6.33608 8.48388 6.29509C8.70523 6.25592 8.93113 6.21675 9.12789 6.17303C9.2201 6.15316 9.31129 6.12884 9.40115 6.10016C9.4886 6.07192 9.56512 6.06008 9.69264 5.95259C9.81835 5.84511 9.84385 5.77132 9.88575 5.69116C9.92765 5.60918 9.965 5.52447 10.0033 5.43156C10.0798 5.24391 10.1572 5.0253 10.2346 4.81215C10.3121 4.599 10.3904 4.3904 10.4551 4.24284L10.4888 4.17179C10.5161 4.17179 10.5298 4.17179 10.5635 4.1809C10.722 4.19729 10.9387 4.23373 11.1601 4.2729C11.3805 4.31207 11.6083 4.35306 11.8068 4.37947C11.907 4.39314 11.999 4.40407 12.0901 4.40771C12.1812 4.40771 12.2577 4.42502 12.4144 4.36763C12.5702 4.31024 12.6194 4.25104 12.6859 4.18909C12.7548 4.12412 12.8208 4.05604 12.8835 3.98505C13.0192 3.83476 13.1659 3.65713 13.3107 3.48315C13.4556 3.31008 13.5986 3.14065 13.7088 3.02406C13.7325 2.99946 13.7461 2.99126 13.7644 2.97214ZM15.5078 5.22114C11.2366 5.22114 7.76518 8.69257 7.76518 12.9638C7.76518 17.235 11.2366 20.7064 15.5078 20.7064C19.779 20.7064 23.2504 17.235 23.2504 12.9638C23.2504 8.69257 19.779 5.22114 15.5078 5.22114ZM15.5078 6.08012C16.4119 6.0794 17.3073 6.25697 18.1426 6.60268C18.978 6.94838 19.737 7.45543 20.3763 8.0948C21.0155 8.73417 21.5223 9.49332 21.8678 10.3288C22.2133 11.1643 22.3906 12.0597 22.3896 12.9638C22.3906 13.8678 22.2133 14.7631 21.8677 15.5985C21.5222 16.4338 21.0154 17.1929 20.3761 17.8321C19.7369 18.4713 18.9779 18.9782 18.1425 19.3237C17.3071 19.6692 16.4118 19.8466 15.5078 19.8456C14.6038 19.8466 13.7085 19.6692 12.8731 19.3237C12.0377 18.9782 11.2787 18.4713 10.6395 17.8321C10.0003 17.1929 9.49338 16.4338 9.14788 15.5985C8.80237 14.7631 8.62502 13.8678 8.62598 12.9638C8.62502 12.0597 8.80236 11.1643 9.14784 10.3288C9.49332 9.49332 10.0002 8.73417 10.6394 8.0948C11.2786 7.45543 12.0376 6.94838 12.873 6.60268C13.7084 6.25697 14.6037 6.0794 15.5078 6.08012ZM15.4869 8.6033C15.2127 8.6033 15.0934 8.74449 15.0023 8.84378C14.9142 8.94332 14.8367 9.05169 14.7709 9.16715C14.6297 9.40307 14.4913 9.68636 14.3564 9.97329C14.2216 10.2602 14.0905 10.5508 13.9811 10.7703C13.9265 10.8796 13.8773 10.9735 13.8409 11.0336C13.8336 11.0454 13.8299 11.0491 13.8227 11.0582C13.8135 11.0582 13.809 11.0673 13.7962 11.0673C13.7279 11.0846 13.6259 11.1037 13.5047 11.1219C13.2615 11.162 12.9464 11.2003 12.6303 11.2431C12.316 11.2859 12.0018 11.3342 11.734 11.3998C11.6049 11.4285 11.4792 11.4703 11.3587 11.5246C11.2375 11.5819 11.0681 11.6521 10.9852 11.9126C10.9023 12.1731 10.998 12.3289 11.0635 12.4464C11.1291 12.563 11.2093 12.6604 11.3004 12.7652C11.4807 12.972 11.7085 13.1915 11.9407 13.4083C12.173 13.626 12.4089 13.8401 12.5847 14.0113C12.6722 14.0969 12.746 14.1725 12.7915 14.2254C12.7988 14.2345 12.7997 14.2381 12.8052 14.2463C12.8052 14.2582 12.8079 14.2627 12.807 14.2764C12.7993 14.3761 12.7874 14.4755 12.7715 14.5742C12.7332 14.8165 12.6731 15.1262 12.6166 15.4387C12.5601 15.7511 12.5073 16.0626 12.4873 16.3368C12.4763 16.4735 12.4736 16.601 12.49 16.734C12.5082 16.867 12.5219 17.0491 12.7451 17.2086C12.9673 17.368 13.1449 17.3233 13.277 17.2978C13.4067 17.2693 13.5331 17.2275 13.6541 17.173C13.9074 17.0655 14.187 16.918 14.4648 16.7631C14.7436 16.6101 15.0196 16.4525 15.2373 16.3386C15.3466 16.2822 15.4413 16.2375 15.506 16.2111C15.5197 16.202 15.5242 16.202 15.536 16.202C15.6362 16.2429 15.7347 16.2879 15.8312 16.3368C16.0507 16.448 16.3267 16.601 16.6073 16.7513C16.8878 16.9016 17.1693 17.0491 17.4243 17.1539C17.5519 17.2058 17.6703 17.2477 17.8033 17.2723C17.9354 17.2978 18.113 17.3397 18.3334 17.1767C18.5539 17.0145 18.5684 16.8314 18.5839 16.6985C18.5971 16.567 18.5965 16.4345 18.5821 16.3031C18.5584 16.0299 18.5001 15.7165 18.44 15.405C18.3799 15.0925 18.317 14.7837 18.276 14.5414C18.2585 14.4436 18.2448 14.3452 18.235 14.2463V14.2181C18.3042 14.1347 18.3772 14.0544 18.4537 13.9776C18.6267 13.8045 18.8617 13.5877 19.0913 13.3673C19.3208 13.1487 19.5467 12.9282 19.7244 12.7187C19.8136 12.6131 19.8911 12.512 19.9557 12.3945C20.0195 12.276 20.1151 12.1221 20.0286 11.8625C19.9421 11.6029 19.7717 11.5328 19.6497 11.4763C19.5278 11.423 19.4009 11.3824 19.2707 11.3551C18.9742 11.293 18.6747 11.2456 18.3735 11.213C18.0583 11.1739 17.7413 11.1383 17.499 11.1037C17.4003 11.0894 17.3021 11.0712 17.2048 11.0491C17.193 11.0491 17.1902 11.04 17.1802 11.04C17.1729 11.0308 17.1684 11.0272 17.1602 11.0154C17.1095 10.9307 17.0621 10.8441 17.0181 10.7558C16.906 10.5371 16.7703 10.2502 16.6319 9.96419C16.5043 9.69016 16.3633 9.42264 16.2092 9.1626C16.1415 9.04784 16.0622 8.94039 15.9724 8.84196C15.8795 8.74358 15.7601 8.60513 15.4869 8.60695V8.6033ZM15.4932 9.75104C15.5916 9.92137 15.6991 10.1218 15.8121 10.3559C15.9469 10.6328 16.0808 10.9234 16.2056 11.1666C16.2675 11.2886 16.3267 11.3979 16.3877 11.4963C16.4506 11.5947 16.4907 11.6785 16.6391 11.7842C16.7885 11.8907 16.8805 11.9017 16.9935 11.9281C17.1064 11.9554 17.2303 11.9764 17.3651 11.9964C17.6366 12.0365 17.9554 12.072 18.2615 12.1103C18.5192 12.1421 18.7433 12.1786 18.9355 12.2168C18.8044 12.3626 18.6468 12.5265 18.4591 12.706C18.2369 12.9191 18.0018 13.1368 17.8078 13.33C17.7113 13.4274 17.6257 13.5167 17.5528 13.606C17.4772 13.6952 17.4079 13.759 17.3524 13.9339C17.2977 14.1069 17.3159 14.198 17.326 14.3137C17.3351 14.4294 17.3533 14.5533 17.3761 14.6872C17.4216 14.9577 17.4881 15.2702 17.5464 15.5735C17.5956 15.8285 17.6302 16.0526 17.653 16.2476C17.4451 16.154 17.2406 16.0532 17.0399 15.9451C16.7667 15.7994 16.487 15.6445 16.2429 15.5207C16.1314 15.4629 16.0174 15.41 15.9013 15.3622C15.7929 15.3184 15.71 15.2729 15.5279 15.2747C15.3439 15.2747 15.2637 15.323 15.1553 15.3676C15.0487 15.4123 14.9367 15.4678 14.8155 15.5316C14.5732 15.6573 14.2945 15.8158 14.024 15.9652C13.7962 16.0909 13.5922 16.1929 13.4137 16.2749C13.4346 16.079 13.4683 15.8541 13.5139 15.599C13.5685 15.2957 13.6295 14.9814 13.6714 14.7109C13.6933 14.5761 13.7079 14.4531 13.717 14.3374C13.7243 14.2217 13.7416 14.1297 13.6842 13.9566C13.6268 13.7836 13.5585 13.7207 13.4838 13.6324C13.4004 13.5375 13.3128 13.4463 13.2215 13.3591C13.0256 13.1678 12.7888 12.9538 12.5638 12.7433C12.3971 12.5879 12.2361 12.4266 12.081 12.2596C12.2741 12.2196 12.4982 12.1777 12.7551 12.144C13.0611 12.1021 13.3781 12.0647 13.6487 12.021C13.7835 11.9991 13.9065 11.9754 14.0185 11.9481C14.1314 11.9199 14.2253 11.909 14.3728 11.8006C14.5204 11.6912 14.5577 11.6074 14.6188 11.5091C14.6789 11.4089 14.7372 11.2987 14.7982 11.1757C14.9194 10.9306 15.0515 10.6401 15.1826 10.3613C15.2919 10.1263 15.3976 9.92228 15.4932 9.75104ZM9.7728 22.3396C9.8147 22.4143 9.85751 22.4909 10.0069 22.5783C10.1772 22.6776 10.2729 22.6639 10.3694 22.6667C10.4669 22.6667 10.5616 22.6575 10.6637 22.6512C10.8668 22.6293 11.0936 22.5892 11.3177 22.5491C11.5427 22.51 11.7631 22.4708 11.9298 22.4489C11.999 22.4398 12.0491 22.4344 12.0919 22.4307C12.1229 22.4608 12.1594 22.4972 12.2076 22.5491C12.3215 22.6758 12.4663 22.8497 12.613 23.0246L12.6859 23.1084L10.875 26.2465L10.4642 24.7125C10.4303 24.5874 10.3481 24.4809 10.2357 24.4164C10.1233 24.3518 9.98994 24.3345 9.8648 24.3682L8.3436 24.7754L9.7728 22.3396ZM21.2401 22.3487L22.6666 24.7808L21.1454 24.3728C21.0201 24.3397 20.8868 24.3577 20.7748 24.4227C20.6628 24.4878 20.5812 24.5946 20.5478 24.7198L20.137 26.2501L18.3261 23.1157C18.3516 23.0848 18.3771 23.0592 18.4026 23.0283C18.5484 22.8525 18.6941 22.6794 18.808 22.5528C18.8451 22.512 18.8837 22.4725 18.9237 22.4344C18.9665 22.4344 19.0166 22.4453 19.0858 22.4526C19.2525 22.4745 19.4729 22.5136 19.6979 22.5528C19.922 22.592 20.1488 22.632 20.352 22.6548C20.454 22.6657 20.5487 22.673 20.6462 22.6703C20.7427 22.6703 20.8384 22.6812 21.0087 22.5819C21.1081 22.53 21.1889 22.4485 21.2401 22.3487Z"/>
</mask>
<path d="M13.8208 2.01205V2.01843C13.7467 2.00591 13.6709 2.00591 13.5967 2.01843C13.4027 2.05304 13.3399 2.125 13.2643 2.18603C13.1883 2.249 13.1165 2.31686 13.0493 2.38916C12.9081 2.53764 12.7596 2.71526 12.613 2.89015C12.4672 3.06596 12.3215 3.23994 12.2076 3.36564C12.1705 3.40648 12.1319 3.44598 12.0919 3.48406C12.0491 3.48406 11.999 3.47495 11.9298 3.46675C11.7631 3.44398 11.5427 3.40481 11.3177 3.36564C11.0936 3.32648 10.8668 3.2864 10.6637 3.26453C10.566 3.25281 10.4678 3.24733 10.3694 3.24814C10.2729 3.24814 10.1772 3.23812 10.0069 3.33741C9.83656 3.43669 9.80195 3.52414 9.75185 3.60794C9.70266 3.69174 9.66167 3.77646 9.62068 3.87119C9.5387 4.05884 9.45672 4.27745 9.37838 4.49333C9.30005 4.70922 9.22353 4.92237 9.15977 5.08086C9.13244 5.14736 9.10967 5.19655 9.09054 5.23572C9.03753 5.25101 8.98406 5.26468 8.93022 5.27671C8.76626 5.31314 8.54582 5.35231 8.32174 5.39239C8.09766 5.43247 7.86902 5.47437 7.67045 5.52356C7.57207 5.54815 7.48007 5.57366 7.38989 5.60918C7.2988 5.64471 7.20589 5.66384 7.08019 5.81505C6.95448 5.96626 6.95266 6.06099 6.93444 6.15663C6.91623 6.25228 6.9053 6.3461 6.89801 6.44812C6.88526 6.65398 6.88526 6.88717 6.88434 7.11763C6.88434 7.34809 6.88434 7.5749 6.87706 7.74615C6.87432 7.81902 6.86795 7.87094 6.86339 7.91467C6.82878 7.94017 6.78688 7.97205 6.72676 8.01122C6.58375 8.10231 6.38791 8.21526 6.19024 8.33095C5.99349 8.44663 5.79491 8.56505 5.62548 8.67982C5.54339 8.73389 5.46489 8.79322 5.39047 8.85744C5.3176 8.92212 5.23744 8.97222 5.17186 9.15622C5.10536 9.34022 5.1336 9.4304 5.14817 9.52695C5.16275 9.6226 5.18734 9.7146 5.21558 9.81298C5.27206 10.0106 5.35039 10.2302 5.42782 10.446C5.50433 10.6628 5.58085 10.876 5.63186 11.0381C5.65372 11.1083 5.6683 11.1602 5.67832 11.2021C5.65463 11.2385 5.62366 11.285 5.57812 11.3433C5.47519 11.4781 5.33218 11.6503 5.18552 11.827C5.03978 12.0037 4.89312 12.184 4.77288 12.3498C4.71412 12.4288 4.66057 12.5116 4.61257 12.5976C4.56611 12.6832 4.50781 12.7579 4.50781 12.9528C4.50781 13.1478 4.56611 13.2234 4.61257 13.309C4.65902 13.3946 4.71276 13.473 4.77288 13.5559C4.89312 13.7225 5.03978 13.902 5.18552 14.0796C5.33126 14.2563 5.47519 14.4285 5.57903 14.5624C5.62275 14.6216 5.65463 14.6672 5.67832 14.7036C5.66513 14.7588 5.64994 14.8135 5.63277 14.8675C5.58085 15.0297 5.50525 15.2437 5.42782 15.4596C5.35039 15.6755 5.27297 15.8941 5.21558 16.0918C5.18705 16.1862 5.16453 16.2824 5.14817 16.3796C5.1336 16.4762 5.10536 16.5655 5.17095 16.7495C5.23744 16.9335 5.31669 16.9845 5.38956 17.0482C5.46243 17.1129 5.53986 17.1694 5.62457 17.2268C5.79491 17.3415 5.99349 17.46 6.19024 17.5756C6.38791 17.6913 6.58375 17.8034 6.72585 17.8945C6.78688 17.9318 6.82878 17.9637 6.86248 17.9901C6.86795 18.0338 6.87432 18.0876 6.87706 18.1604C6.88434 18.3317 6.88434 18.5585 6.88434 18.789C6.88434 19.0185 6.88434 19.2499 6.89892 19.4557C6.90529 19.5587 6.91532 19.6534 6.93444 19.749C6.95266 19.8447 6.95448 19.9403 7.08019 20.0906C7.20589 20.2418 7.2988 20.2619 7.38989 20.2974C7.48098 20.3329 7.57207 20.3603 7.67045 20.3849C7.86902 20.434 8.09857 20.4759 8.32174 20.516C8.54582 20.5561 8.76535 20.5953 8.93022 20.6317C8.99945 20.6472 9.04955 20.6609 9.09054 20.6727C9.10967 20.7119 9.13244 20.7611 9.15977 20.8276C9.20167 20.9287 9.25177 21.0717 9.30096 21.2047L6.89528 25.3019C6.8459 25.3856 6.82262 25.4822 6.82839 25.5793C6.83416 25.6763 6.86872 25.7695 6.92767 25.8468C6.98661 25.9241 7.06727 25.9821 7.15933 26.0134C7.2514 26.0447 7.3507 26.0478 7.44455 26.0224L9.64527 25.4321L10.2364 27.6347C10.2619 27.7276 10.3143 27.8109 10.387 27.8742C10.4597 27.9375 10.5494 27.9779 10.6449 27.9903C10.7405 28.0028 10.8376 27.9867 10.924 27.9442C11.0105 27.9017 11.0825 27.8346 11.1309 27.7513L13.4009 23.8217C13.4492 23.849 13.5066 23.8736 13.5967 23.8891C13.7917 23.9237 13.8755 23.8781 13.9675 23.8463C14.0586 23.8144 14.146 23.7761 14.2371 23.7306C14.4211 23.6395 14.6215 23.5247 14.8201 23.4109C15.0168 23.2961 15.2109 23.1822 15.3602 23.103C15.4231 23.0702 15.4686 23.0474 15.5078 23.0301C15.547 23.0474 15.5934 23.0702 15.6554 23.103C15.8048 23.1822 15.9988 23.2961 16.1965 23.4109C16.3941 23.5247 16.5945 23.6404 16.7785 23.7306C16.8696 23.7761 16.9561 23.8144 17.0481 23.8463C17.1401 23.8781 17.2239 23.9237 17.4189 23.8891C17.487 23.8783 17.5527 23.8555 17.6129 23.8217L19.881 27.7513C19.9295 27.8346 20.0015 27.9017 20.0879 27.9442C20.1744 27.9867 20.2715 28.0028 20.367 27.9903C20.4626 27.9779 20.5523 27.9375 20.625 27.8742C20.6977 27.8109 20.75 27.7276 20.7755 27.6347L21.3667 25.434L23.5656 26.0242C23.6593 26.0491 23.7584 26.0456 23.8501 26.0142C23.9418 25.9827 24.0221 25.9246 24.0808 25.8474C24.1395 25.7702 24.1739 25.6773 24.1796 25.5805C24.1854 25.4837 24.1622 25.3873 24.1131 25.3037L21.7128 21.2119C21.7629 21.0753 21.813 20.9305 21.8559 20.8276C21.8832 20.7611 21.906 20.7119 21.9251 20.6727C21.9661 20.6609 22.0162 20.6472 22.0854 20.6317C22.2494 20.5953 22.4698 20.557 22.6939 20.516C22.918 20.4759 23.1466 20.434 23.3452 20.3849C23.4405 20.3619 23.5342 20.3327 23.6257 20.2974C23.7168 20.261 23.8097 20.2418 23.9354 20.0906C24.0611 19.9394 24.063 19.8447 24.0812 19.749C24.0994 19.6534 24.1103 19.5578 24.1176 19.4557C24.1304 19.2499 24.1304 19.0185 24.1313 18.789C24.1313 18.5585 24.1313 18.3317 24.1386 18.1604C24.1413 18.0876 24.1477 18.0329 24.1522 17.9901C24.1868 17.9646 24.2287 17.9327 24.2889 17.8935C24.4319 17.8025 24.6259 17.6913 24.8236 17.5747C25.0203 17.46 25.2198 17.3415 25.3883 17.2268C25.4739 17.1694 25.5514 17.1129 25.6233 17.0482C25.6962 16.9845 25.7764 16.9335 25.8419 16.7495C25.9084 16.5655 25.8802 16.4762 25.8656 16.3796C25.8493 16.2824 25.8268 16.1862 25.7982 16.0918C25.734 15.8789 25.6632 15.6681 25.586 15.4596C25.5146 15.2634 25.4466 15.0661 25.3819 14.8675C25.3648 14.8135 25.3496 14.7588 25.3364 14.7036C25.3592 14.6672 25.3911 14.6216 25.4348 14.5633C25.5386 14.4285 25.6825 14.2563 25.8283 14.0796C25.974 13.9029 26.1225 13.7225 26.2427 13.5559C26.3029 13.4739 26.3566 13.3946 26.4031 13.309C26.4495 13.2234 26.5078 13.1487 26.5078 12.9538C26.5078 12.7579 26.4495 12.6823 26.4031 12.5976C26.3551 12.5116 26.3015 12.4288 26.2427 12.3498C26.1225 12.184 25.974 12.0037 25.8283 11.827C25.6825 11.6503 25.5386 11.4763 25.4348 11.3415C25.4001 11.2962 25.367 11.2497 25.3355 11.2021C25.3455 11.1593 25.3601 11.1083 25.381 11.0381C25.433 10.876 25.5086 10.6628 25.586 10.446C25.6634 10.2302 25.7408 10.0106 25.7982 9.81298C25.8265 9.7146 25.8511 9.6226 25.8656 9.52695C25.8802 9.4304 25.9084 9.34022 25.8429 9.15622C25.7764 8.97313 25.6971 8.92212 25.6242 8.85744C25.5499 8.79314 25.4714 8.7338 25.3892 8.67982C25.2043 8.55768 25.0157 8.44133 24.8236 8.33095C24.6259 8.21526 24.4319 8.10231 24.2898 8.01122C24.243 7.98075 24.1975 7.94854 24.1531 7.91467C24.1477 7.87094 24.1413 7.81811 24.1386 7.74615C24.1313 7.5749 24.1313 7.34809 24.1313 7.11763C24.1313 6.88717 24.1313 6.65398 24.1167 6.44903C24.1111 6.35121 24.0992 6.25385 24.0812 6.15754C24.063 6.0619 24.0611 5.96626 23.9354 5.81505C23.8097 5.66384 23.7168 5.64471 23.6257 5.60918C23.5346 5.57275 23.4436 5.54815 23.3452 5.52356C23.1295 5.47314 22.9123 5.4294 22.6939 5.39239C22.4698 5.35231 22.2503 5.31223 22.0854 5.27671C22.0316 5.26468 21.9781 5.25101 21.9251 5.23572C21.9002 5.18491 21.8771 5.13327 21.8559 5.08086C21.7921 4.92237 21.7156 4.70922 21.6372 4.49333C21.5629 4.28351 21.4821 4.07603 21.3949 3.87119C21.3566 3.78039 21.3125 3.69216 21.2629 3.60703C21.2137 3.52505 21.1782 3.43578 21.0087 3.33741C20.8384 3.23721 20.7427 3.24996 20.6462 3.24814C20.5487 3.24814 20.454 3.25725 20.352 3.26453C20.1488 3.2864 19.922 3.32647 19.6979 3.36473C19.4729 3.40481 19.2525 3.44489 19.0858 3.46675C19.0166 3.47586 18.9665 3.48133 18.9237 3.48497C18.8837 3.44655 18.8452 3.40675 18.808 3.36564C18.6702 3.20946 18.5351 3.05094 18.4026 2.89015C18.256 2.71526 18.1057 2.5349 17.9654 2.38734C17.8986 2.31556 17.8271 2.24831 17.7514 2.18603C17.6757 2.125 17.6138 2.05122 17.4189 2.0166C17.2239 1.98199 17.1401 2.02571 17.0481 2.05759C16.9571 2.08948 16.8696 2.13047 16.7785 2.17601C16.5945 2.2671 16.3941 2.38096 16.1955 2.49483C15.9988 2.61051 15.8048 2.72437 15.6554 2.80362C15.5934 2.83641 15.547 2.85554 15.5078 2.87285C15.4686 2.85463 15.4231 2.83641 15.3602 2.80362C15.2109 2.72437 15.0168 2.61051 14.8192 2.49574C14.6285 2.38283 14.4344 2.2759 14.2371 2.1751C14.1498 2.13021 14.0598 2.09096 13.9675 2.05759C13.9219 2.04211 13.8773 2.02298 13.8208 2.01205ZM13.7644 2.97214C13.7889 2.98307 13.8035 2.98671 13.8336 3.00128C13.9766 3.07233 14.167 3.17982 14.3619 3.29277C14.5568 3.40572 14.7554 3.52232 14.933 3.61614C15.0223 3.66351 15.1061 3.70723 15.189 3.74093C15.2737 3.77555 15.3411 3.81563 15.5078 3.81563C15.6745 3.81563 15.7401 3.77555 15.8248 3.74093C15.9118 3.7034 15.9969 3.66176 16.0799 3.61614C16.2584 3.52232 16.4588 3.40572 16.6537 3.29277C16.8487 3.17982 17.039 3.07142 17.182 3.00128C17.2121 2.9858 17.2267 2.98307 17.2513 2.97214C17.2713 2.99126 17.2832 2.99946 17.3059 3.02406C17.4171 3.13974 17.561 3.31008 17.7049 3.48315C17.8506 3.65622 17.9964 3.83476 18.1321 3.98414C18.1995 4.05975 18.2624 4.12624 18.3298 4.18727C18.3963 4.24921 18.4455 4.30933 18.6012 4.36763C18.7579 4.42502 18.8344 4.41044 18.9255 4.4068C19.0166 4.4068 19.1086 4.39314 19.2079 4.37947C19.4083 4.35215 19.6351 4.31115 19.8555 4.2729C20.0769 4.23373 20.2937 4.19729 20.4522 4.17999C20.4859 4.17999 20.4995 4.1809 20.5269 4.17088L20.5606 4.24284C20.6243 4.3904 20.7036 4.599 20.781 4.81215C20.8584 5.0253 20.9359 5.24391 21.0124 5.43156C21.0506 5.52447 21.088 5.6101 21.1299 5.69116C21.1718 5.77223 21.1973 5.84511 21.3239 5.95259C21.4505 6.06008 21.527 6.07192 21.6136 6.10016C21.7001 6.12749 21.7894 6.15117 21.8868 6.17303C22.0845 6.21675 22.3104 6.25501 22.5317 6.296C22.7531 6.33608 22.969 6.37525 23.1238 6.41351C23.1584 6.42262 23.1721 6.42899 23.1985 6.43628C23.2022 6.46452 23.2049 6.48 23.2076 6.51644C23.2186 6.67767 23.2195 6.89902 23.2204 7.12674C23.2204 7.35355 23.2204 7.58583 23.2295 7.78805C23.2331 7.89007 23.2386 7.98298 23.2504 8.07316C23.2623 8.16334 23.2623 8.24077 23.3452 8.38469C23.4272 8.5277 23.4937 8.56687 23.5656 8.62243C23.6367 8.67891 23.7132 8.73174 23.7988 8.7864C23.9682 8.8957 24.1686 9.01048 24.3626 9.12434C24.5567 9.2382 24.7452 9.35206 24.8782 9.44133C24.9083 9.46137 24.9192 9.4723 24.942 9.48961C24.9356 9.51693 24.9329 9.53333 24.9228 9.56886C24.8782 9.72371 24.8044 9.93413 24.7288 10.1473C24.6523 10.3604 24.574 10.5772 24.5139 10.7703C24.4841 10.8611 24.4585 10.9532 24.4373 11.0463C24.4182 11.1356 24.3918 11.2076 24.4191 11.3697C24.4474 11.5318 24.4975 11.591 24.5457 11.6685C24.594 11.7459 24.6496 11.8233 24.7115 11.9035C24.8336 12.0638 24.9811 12.2405 25.126 12.4136C25.2699 12.5885 25.4102 12.7606 25.5049 12.8909C25.5268 12.921 25.535 12.9364 25.5505 12.9601C25.535 12.9847 25.5268 12.9993 25.5049 13.0294C25.4102 13.1596 25.2699 13.33 25.126 13.5048C24.9811 13.6788 24.8345 13.8565 24.7115 14.0168C24.6496 14.0969 24.5931 14.1716 24.5457 14.2481C24.4975 14.3256 24.4474 14.3884 24.4191 14.5506C24.3918 14.7127 24.4182 14.7856 24.4373 14.8748C24.4556 14.9641 24.4829 15.0515 24.5139 15.1481C24.5749 15.3412 24.6523 15.5598 24.7288 15.773C24.8053 15.9861 24.8782 16.1965 24.9228 16.3514C24.9329 16.3869 24.9356 16.4033 24.942 16.4316C24.9192 16.4489 24.9083 16.4589 24.8782 16.4789C24.7095 16.5897 24.5376 16.6954 24.3626 16.7959C24.1686 16.9098 23.9682 17.0255 23.7979 17.1339C23.7132 17.1885 23.6367 17.2395 23.5656 17.296C23.4937 17.3525 23.4272 17.3907 23.3452 17.5347C23.2632 17.6777 23.2632 17.7533 23.2504 17.8444C23.239 17.9393 23.232 18.0348 23.2295 18.1304C23.2204 18.3326 23.2204 18.5631 23.2204 18.7908C23.2204 19.0176 23.2186 19.2389 23.2076 19.4011C23.2049 19.4375 23.2022 19.453 23.1985 19.4831C23.1712 19.4922 23.1584 19.4967 23.1238 19.5058C22.969 19.5441 22.7531 19.5851 22.5317 19.6243C22.3104 19.6652 22.0845 19.7044 21.8877 19.7472C21.7956 19.7665 21.7044 19.7902 21.6145 19.8183C21.527 19.8465 21.4505 19.8602 21.323 19.9686C21.1973 20.0751 21.1718 20.1489 21.1299 20.23C21.0867 20.3147 21.0475 20.4013 21.0124 20.4896C20.9359 20.6773 20.8584 20.8959 20.781 21.109C20.7036 21.3213 20.6252 21.528 20.5606 21.6756C20.546 21.7093 20.5378 21.7211 20.5241 21.7476C20.4986 21.7476 20.485 21.7476 20.4513 21.7384C20.2518 21.7132 20.0532 21.6823 19.8555 21.6455C19.6351 21.6064 19.4074 21.5654 19.2088 21.539C19.1149 21.525 19.0203 21.5156 18.9255 21.5107C18.8344 21.5107 18.7579 21.4961 18.6012 21.5535C18.4455 21.6109 18.3963 21.6701 18.3298 21.7312C18.2608 21.7964 18.1948 21.8648 18.1321 21.9361C17.9964 22.0855 17.8497 22.264 17.7049 22.4371C17.5601 22.6102 17.4171 22.7769 17.3068 22.8926L17.2522 22.9481C17.2267 22.9372 17.2121 22.9326 17.182 22.9181C17.0032 22.8253 16.827 22.7275 16.6537 22.6248C16.4588 22.5118 16.2584 22.3952 16.0799 22.3005C15.9969 22.2552 15.9118 22.2142 15.8248 22.1775C15.7401 22.1429 15.6745 22.1028 15.5078 22.1028C15.3411 22.1028 15.2737 22.1429 15.189 22.1775C15.102 22.215 15.0169 22.2567 14.9339 22.3023C14.7554 22.397 14.5568 22.5136 14.3619 22.6257C14.167 22.7386 13.9766 22.847 13.8336 22.9171C13.8035 22.9326 13.7889 22.9372 13.7644 22.9481C13.7443 22.929 13.7325 22.9181 13.7097 22.8935C13.5986 22.7769 13.4546 22.6111 13.3107 22.438C13.165 22.2649 13.0192 22.0855 12.8835 21.9361C12.8208 21.8648 12.7548 21.7964 12.6859 21.7312C12.6194 21.6701 12.5702 21.6109 12.4144 21.5535C12.2577 21.4961 12.1812 21.5071 12.0901 21.5107C11.999 21.5107 11.907 21.5253 11.8077 21.539C11.6073 21.5663 11.3805 21.6073 11.1601 21.6455C10.9387 21.6847 10.722 21.7211 10.5635 21.7384C10.5307 21.7384 10.5179 21.7384 10.4906 21.7476C10.4778 21.7221 10.4696 21.7102 10.4551 21.6765C10.3913 21.528 10.3121 21.3213 10.2346 21.1081C10.1572 20.8959 10.0798 20.6773 10.0033 20.4887C9.96816 20.4007 9.92894 20.3143 9.88575 20.23C9.84385 20.148 9.81835 20.0751 9.69173 19.9677C9.56512 19.8602 9.4886 19.8465 9.40207 19.8183C9.31217 19.7902 9.22097 19.7665 9.1288 19.7472C8.93113 19.7035 8.70523 19.6652 8.48388 19.6252C8.26253 19.5851 8.04665 19.5432 7.8918 19.5058C7.85718 19.4967 7.84352 19.4913 7.8171 19.4822C7.81346 19.453 7.81073 19.4366 7.80799 19.4002C7.79706 19.2389 7.79615 19.0176 7.79524 18.7899C7.79524 18.5631 7.79524 18.3326 7.78613 18.1304C7.78359 18.0345 7.77659 17.9387 7.76518 17.8434C7.75334 17.7533 7.75334 17.6777 7.67045 17.5337C7.58847 17.3907 7.52197 17.3516 7.45001 17.296C7.37436 17.2382 7.29592 17.1841 7.215 17.1339C7.04557 17.0255 6.84609 16.9098 6.65116 16.7968C6.45713 16.6821 6.26858 16.5691 6.13559 16.4789C6.10553 16.4589 6.0946 16.4489 6.07182 16.4316C6.0782 16.4033 6.08093 16.386 6.09095 16.3514C6.13559 16.1965 6.20937 15.9861 6.28497 15.773C6.36149 15.5598 6.43983 15.3412 6.49995 15.1481C6.53092 15.0515 6.55733 14.9641 6.57646 14.8748C6.59559 14.7856 6.62201 14.7127 6.59468 14.5506C6.56644 14.3884 6.51634 14.3256 6.46806 14.2481C6.41681 14.1684 6.36179 14.0912 6.30319 14.0168C6.18022 13.8565 6.03174 13.6797 5.88782 13.5048C5.74481 13.3309 5.60544 13.1596 5.51071 13.0294C5.48885 12.9993 5.48065 12.9847 5.46517 12.9601C5.48065 12.9355 5.48885 12.921 5.51071 12.8909C5.60544 12.7606 5.74481 12.5885 5.88782 12.4145C6.03174 12.2396 6.17931 12.062 6.30319 11.9017C6.36422 11.8215 6.41979 11.7459 6.46806 11.6685C6.51634 11.591 6.56644 11.5318 6.59468 11.3697C6.62292 11.2076 6.59559 11.1347 6.57646 11.0463C6.55529 10.9532 6.52976 10.8611 6.49995 10.7703C6.43892 10.5772 6.36149 10.3604 6.28497 10.1473C6.21475 9.95638 6.15005 9.76349 6.09095 9.56886C6.08093 9.53333 6.0782 9.51785 6.07182 9.48961C6.0946 9.47139 6.10553 9.46137 6.13559 9.44133C6.26767 9.35024 6.45713 9.2382 6.65116 9.12434C6.84609 9.01048 7.04557 8.89479 7.21591 8.78731C7.30063 8.73265 7.37896 8.67891 7.45001 8.62334C7.52197 8.56596 7.58847 8.5277 7.67045 8.38469C7.75243 8.24077 7.75243 8.16334 7.76518 8.07316C7.77702 7.98207 7.78249 7.89007 7.78613 7.78805C7.79524 7.58583 7.79524 7.35355 7.79524 7.12674C7.79524 6.89902 7.79706 6.67767 7.80799 6.51644C7.80982 6.48 7.81346 6.46543 7.8171 6.43628C7.84443 6.42717 7.85718 6.42171 7.8918 6.41351C8.04665 6.37525 8.26253 6.33608 8.48388 6.29509C8.70523 6.25592 8.93113 6.21675 9.12789 6.17303C9.2201 6.15316 9.31129 6.12884 9.40115 6.10016C9.4886 6.07192 9.56512 6.06008 9.69264 5.95259C9.81835 5.84511 9.84385 5.77132 9.88575 5.69116C9.92765 5.60918 9.965 5.52447 10.0033 5.43156C10.0798 5.24391 10.1572 5.0253 10.2346 4.81215C10.3121 4.599 10.3904 4.3904 10.4551 4.24284L10.4888 4.17179C10.5161 4.17179 10.5298 4.17179 10.5635 4.1809C10.722 4.19729 10.9387 4.23373 11.1601 4.2729C11.3805 4.31207 11.6083 4.35306 11.8068 4.37947C11.907 4.39314 11.999 4.40407 12.0901 4.40771C12.1812 4.40771 12.2577 4.42502 12.4144 4.36763C12.5702 4.31024 12.6194 4.25104 12.6859 4.18909C12.7548 4.12412 12.8208 4.05604 12.8835 3.98505C13.0192 3.83476 13.1659 3.65713 13.3107 3.48315C13.4556 3.31008 13.5986 3.14065 13.7088 3.02406C13.7325 2.99946 13.7461 2.99126 13.7644 2.97214ZM15.5078 5.22114C11.2366 5.22114 7.76518 8.69257 7.76518 12.9638C7.76518 17.235 11.2366 20.7064 15.5078 20.7064C19.779 20.7064 23.2504 17.235 23.2504 12.9638C23.2504 8.69257 19.779 5.22114 15.5078 5.22114ZM15.5078 6.08012C16.4119 6.0794 17.3073 6.25697 18.1426 6.60268C18.978 6.94838 19.737 7.45543 20.3763 8.0948C21.0155 8.73417 21.5223 9.49332 21.8678 10.3288C22.2133 11.1643 22.3906 12.0597 22.3896 12.9638C22.3906 13.8678 22.2133 14.7631 21.8677 15.5985C21.5222 16.4338 21.0154 17.1929 20.3761 17.8321C19.7369 18.4713 18.9779 18.9782 18.1425 19.3237C17.3071 19.6692 16.4118 19.8466 15.5078 19.8456C14.6038 19.8466 13.7085 19.6692 12.8731 19.3237C12.0377 18.9782 11.2787 18.4713 10.6395 17.8321C10.0003 17.1929 9.49338 16.4338 9.14788 15.5985C8.80237 14.7631 8.62502 13.8678 8.62598 12.9638C8.62502 12.0597 8.80236 11.1643 9.14784 10.3288C9.49332 9.49332 10.0002 8.73417 10.6394 8.0948C11.2786 7.45543 12.0376 6.94838 12.873 6.60268C13.7084 6.25697 14.6037 6.0794 15.5078 6.08012ZM15.4869 8.6033C15.2127 8.6033 15.0934 8.74449 15.0023 8.84378C14.9142 8.94332 14.8367 9.05169 14.7709 9.16715C14.6297 9.40307 14.4913 9.68636 14.3564 9.97329C14.2216 10.2602 14.0905 10.5508 13.9811 10.7703C13.9265 10.8796 13.8773 10.9735 13.8409 11.0336C13.8336 11.0454 13.8299 11.0491 13.8227 11.0582C13.8135 11.0582 13.809 11.0673 13.7962 11.0673C13.7279 11.0846 13.6259 11.1037 13.5047 11.1219C13.2615 11.162 12.9464 11.2003 12.6303 11.2431C12.316 11.2859 12.0018 11.3342 11.734 11.3998C11.6049 11.4285 11.4792 11.4703 11.3587 11.5246C11.2375 11.5819 11.0681 11.6521 10.9852 11.9126C10.9023 12.1731 10.998 12.3289 11.0635 12.4464C11.1291 12.563 11.2093 12.6604 11.3004 12.7652C11.4807 12.972 11.7085 13.1915 11.9407 13.4083C12.173 13.626 12.4089 13.8401 12.5847 14.0113C12.6722 14.0969 12.746 14.1725 12.7915 14.2254C12.7988 14.2345 12.7997 14.2381 12.8052 14.2463C12.8052 14.2582 12.8079 14.2627 12.807 14.2764C12.7993 14.3761 12.7874 14.4755 12.7715 14.5742C12.7332 14.8165 12.6731 15.1262 12.6166 15.4387C12.5601 15.7511 12.5073 16.0626 12.4873 16.3368C12.4763 16.4735 12.4736 16.601 12.49 16.734C12.5082 16.867 12.5219 17.0491 12.7451 17.2086C12.9673 17.368 13.1449 17.3233 13.277 17.2978C13.4067 17.2693 13.5331 17.2275 13.6541 17.173C13.9074 17.0655 14.187 16.918 14.4648 16.7631C14.7436 16.6101 15.0196 16.4525 15.2373 16.3386C15.3466 16.2822 15.4413 16.2375 15.506 16.2111C15.5197 16.202 15.5242 16.202 15.536 16.202C15.6362 16.2429 15.7347 16.2879 15.8312 16.3368C16.0507 16.448 16.3267 16.601 16.6073 16.7513C16.8878 16.9016 17.1693 17.0491 17.4243 17.1539C17.5519 17.2058 17.6703 17.2477 17.8033 17.2723C17.9354 17.2978 18.113 17.3397 18.3334 17.1767C18.5539 17.0145 18.5684 16.8314 18.5839 16.6985C18.5971 16.567 18.5965 16.4345 18.5821 16.3031C18.5584 16.0299 18.5001 15.7165 18.44 15.405C18.3799 15.0925 18.317 14.7837 18.276 14.5414C18.2585 14.4436 18.2448 14.3452 18.235 14.2463V14.2181C18.3042 14.1347 18.3772 14.0544 18.4537 13.9776C18.6267 13.8045 18.8617 13.5877 19.0913 13.3673C19.3208 13.1487 19.5467 12.9282 19.7244 12.7187C19.8136 12.6131 19.8911 12.512 19.9557 12.3945C20.0195 12.276 20.1151 12.1221 20.0286 11.8625C19.9421 11.6029 19.7717 11.5328 19.6497 11.4763C19.5278 11.423 19.4009 11.3824 19.2707 11.3551C18.9742 11.293 18.6747 11.2456 18.3735 11.213C18.0583 11.1739 17.7413 11.1383 17.499 11.1037C17.4003 11.0894 17.3021 11.0712 17.2048 11.0491C17.193 11.0491 17.1902 11.04 17.1802 11.04C17.1729 11.0308 17.1684 11.0272 17.1602 11.0154C17.1095 10.9307 17.0621 10.8441 17.0181 10.7558C16.906 10.5371 16.7703 10.2502 16.6319 9.96419C16.5043 9.69016 16.3633 9.42264 16.2092 9.1626C16.1415 9.04784 16.0622 8.94039 15.9724 8.84196C15.8795 8.74358 15.7601 8.60513 15.4869 8.60695V8.6033ZM15.4932 9.75104C15.5916 9.92137 15.6991 10.1218 15.8121 10.3559C15.9469 10.6328 16.0808 10.9234 16.2056 11.1666C16.2675 11.2886 16.3267 11.3979 16.3877 11.4963C16.4506 11.5947 16.4907 11.6785 16.6391 11.7842C16.7885 11.8907 16.8805 11.9017 16.9935 11.9281C17.1064 11.9554 17.2303 11.9764 17.3651 11.9964C17.6366 12.0365 17.9554 12.072 18.2615 12.1103C18.5192 12.1421 18.7433 12.1786 18.9355 12.2168C18.8044 12.3626 18.6468 12.5265 18.4591 12.706C18.2369 12.9191 18.0018 13.1368 17.8078 13.33C17.7113 13.4274 17.6257 13.5167 17.5528 13.606C17.4772 13.6952 17.4079 13.759 17.3524 13.9339C17.2977 14.1069 17.3159 14.198 17.326 14.3137C17.3351 14.4294 17.3533 14.5533 17.3761 14.6872C17.4216 14.9577 17.4881 15.2702 17.5464 15.5735C17.5956 15.8285 17.6302 16.0526 17.653 16.2476C17.4451 16.154 17.2406 16.0532 17.0399 15.9451C16.7667 15.7994 16.487 15.6445 16.2429 15.5207C16.1314 15.4629 16.0174 15.41 15.9013 15.3622C15.7929 15.3184 15.71 15.2729 15.5279 15.2747C15.3439 15.2747 15.2637 15.323 15.1553 15.3676C15.0487 15.4123 14.9367 15.4678 14.8155 15.5316C14.5732 15.6573 14.2945 15.8158 14.024 15.9652C13.7962 16.0909 13.5922 16.1929 13.4137 16.2749C13.4346 16.079 13.4683 15.8541 13.5139 15.599C13.5685 15.2957 13.6295 14.9814 13.6714 14.7109C13.6933 14.5761 13.7079 14.4531 13.717 14.3374C13.7243 14.2217 13.7416 14.1297 13.6842 13.9566C13.6268 13.7836 13.5585 13.7207 13.4838 13.6324C13.4004 13.5375 13.3128 13.4463 13.2215 13.3591C13.0256 13.1678 12.7888 12.9538 12.5638 12.7433C12.3971 12.5879 12.2361 12.4266 12.081 12.2596C12.2741 12.2196 12.4982 12.1777 12.7551 12.144C13.0611 12.1021 13.3781 12.0647 13.6487 12.021C13.7835 11.9991 13.9065 11.9754 14.0185 11.9481C14.1314 11.9199 14.2253 11.909 14.3728 11.8006C14.5204 11.6912 14.5577 11.6074 14.6188 11.5091C14.6789 11.4089 14.7372 11.2987 14.7982 11.1757C14.9194 10.9306 15.0515 10.6401 15.1826 10.3613C15.2919 10.1263 15.3976 9.92228 15.4932 9.75104ZM9.7728 22.3396C9.8147 22.4143 9.85751 22.4909 10.0069 22.5783C10.1772 22.6776 10.2729 22.6639 10.3694 22.6667C10.4669 22.6667 10.5616 22.6575 10.6637 22.6512C10.8668 22.6293 11.0936 22.5892 11.3177 22.5491C11.5427 22.51 11.7631 22.4708 11.9298 22.4489C11.999 22.4398 12.0491 22.4344 12.0919 22.4307C12.1229 22.4608 12.1594 22.4972 12.2076 22.5491C12.3215 22.6758 12.4663 22.8497 12.613 23.0246L12.6859 23.1084L10.875 26.2465L10.4642 24.7125C10.4303 24.5874 10.3481 24.4809 10.2357 24.4164C10.1233 24.3518 9.98994 24.3345 9.8648 24.3682L8.3436 24.7754L9.7728 22.3396ZM21.2401 22.3487L22.6666 24.7808L21.1454 24.3728C21.0201 24.3397 20.8868 24.3577 20.7748 24.4227C20.6628 24.4878 20.5812 24.5946 20.5478 24.7198L20.137 26.2501L18.3261 23.1157C18.3516 23.0848 18.3771 23.0592 18.4026 23.0283C18.5484 22.8525 18.6941 22.6794 18.808 22.5528C18.8451 22.512 18.8837 22.4725 18.9237 22.4344C18.9665 22.4344 19.0166 22.4453 19.0858 22.4526C19.2525 22.4745 19.4729 22.5136 19.6979 22.5528C19.922 22.592 20.1488 22.632 20.352 22.6548C20.454 22.6657 20.5487 22.673 20.6462 22.6703C20.7427 22.6703 20.8384 22.6812 21.0087 22.5819C21.1081 22.53 21.1889 22.4485 21.2401 22.3487Z" stroke="#2B2B2B" stroke-width="4" mask="url(#path-1-inside-1_5648_397)"/>
</svg>
