<svg width="31" height="30" viewBox="0 0 31 30" fill="none" xmlns="http://www.w3.org/2000/svg">
<path d="M17.5034 14.3043C17.4919 14.2977 17.4818 14.2883 17.4737 14.2768C15.396 11.4118 13.3208 8.52263 11.248 5.6093C10.71 4.8518 11.4712 3.6793 11.8307 2.9793C12.158 2.3443 12.6489 2.1343 13.3803 2.1318C16.8728 2.12013 20.3654 2.12013 23.858 2.1318C24.7332 2.1343 25.4918 3.9743 25.6803 4.4968C25.829 4.9068 25.7654 5.3043 25.4894 5.6893C23.5968 8.33263 21.7001 10.9735 19.7993 13.6118C19.1199 14.5543 18.5869 14.9818 17.5034 14.3043ZM12.934 3.0618C12.9101 3.06168 12.8866 3.06813 12.8661 3.08046C12.8455 3.0928 12.8287 3.11055 12.8175 3.1318L12.21 4.3043C12.1993 4.32453 12.1939 4.34724 12.1945 4.37018C12.1951 4.39313 12.2016 4.41552 12.2133 4.43518C12.2251 4.45484 12.2417 4.47109 12.2615 4.48233C12.2814 4.49356 12.3038 4.49941 12.3266 4.4993H15.3464C15.378 4.49897 15.4084 4.48717 15.4321 4.46605C15.4558 4.44492 15.4711 4.4159 15.4753 4.3843L15.6389 3.2118C15.6414 3.19299 15.6399 3.17386 15.6344 3.1557C15.6289 3.13755 15.6196 3.12079 15.6072 3.10657C15.5947 3.09235 15.5794 3.08099 15.5622 3.07327C15.545 3.06554 15.5264 3.06163 15.5075 3.0618H12.934ZM16.5042 4.4968L20.2728 4.5018C20.2835 4.50213 20.294 4.50031 20.304 4.49644C20.3139 4.49257 20.3229 4.48673 20.3305 4.47927C20.3382 4.47181 20.3442 4.46287 20.3484 4.453C20.3525 4.44313 20.3547 4.43252 20.3547 4.4218V4.3668C20.3552 4.02094 20.3132 3.68922 20.2379 3.44453C20.1626 3.19983 20.0601 3.06217 19.953 3.0618L16.834 3.0568C16.7809 3.05661 16.7282 3.09023 16.679 3.15573C16.6299 3.22122 16.5851 3.31732 16.5473 3.43852C16.5096 3.55972 16.4795 3.70364 16.459 3.86207C16.4384 4.02049 16.4276 4.1903 16.4274 4.3618V4.4168C16.4274 4.43759 16.4354 4.45757 16.4497 4.4725C16.4641 4.48743 16.4836 4.49615 16.5042 4.4968ZM23.972 3.1318C23.9607 3.11055 23.9439 3.0928 23.9234 3.08046C23.9029 3.06813 23.8794 3.06168 23.8555 3.0618H21.2299C21.2105 3.06181 21.1914 3.06614 21.1739 3.07446C21.1564 3.08279 21.141 3.09491 21.1286 3.10995C21.1163 3.125 21.1075 3.1426 21.1027 3.1615C21.0979 3.1804 21.0973 3.20014 21.1009 3.2193L21.3216 4.3868C21.3274 4.41703 21.3434 4.44429 21.3669 4.46391C21.3904 4.48352 21.42 4.49427 21.4505 4.4943L24.4679 4.5093C24.4906 4.50941 24.513 4.50356 24.5329 4.49233C24.5527 4.48109 24.5693 4.46484 24.5811 4.44518C24.5928 4.42552 24.5993 4.40313 24.5999 4.38018C24.6005 4.35724 24.5951 4.33453 24.5844 4.3143L23.972 3.1318ZM15.4828 5.4993C15.4775 5.48146 15.4667 5.46578 15.452 5.45454C15.4373 5.4433 15.4194 5.43709 15.4009 5.4368H12.4232C12.4069 5.43632 12.3908 5.4405 12.3767 5.44886C12.3626 5.45721 12.3512 5.4694 12.3437 5.48402C12.3362 5.49865 12.3329 5.51511 12.3343 5.53152C12.3356 5.54793 12.3415 5.56363 12.3513 5.5768L17.2307 12.3543C17.2427 12.3709 17.26 12.3827 17.2797 12.3876C17.2995 12.3926 17.3203 12.3904 17.3386 12.3815C17.3569 12.3726 17.3715 12.3575 17.3799 12.3388C17.3882 12.3201 17.3899 12.299 17.3844 12.2793L15.4828 5.4993ZM18.3241 12.2018C18.3284 12.2184 18.338 12.2331 18.3514 12.2436C18.3649 12.2541 18.3814 12.2598 18.3985 12.2598C18.4155 12.2598 18.432 12.2541 18.4455 12.2436C18.4589 12.2331 18.4685 12.2184 18.4728 12.2018L20.3274 5.5343C20.3304 5.52281 20.3308 5.51076 20.3285 5.4991C20.3262 5.48744 20.3212 5.47647 20.314 5.46704C20.3069 5.45762 20.2976 5.44999 20.287 5.44474C20.2764 5.4395 20.2648 5.43678 20.253 5.4368H16.5315C16.5197 5.43678 16.5081 5.4395 16.4975 5.44474C16.4869 5.44999 16.4777 5.45762 16.4705 5.46704C16.4633 5.47647 16.4583 5.48744 16.456 5.4991C16.4537 5.51076 16.4541 5.52281 16.4571 5.5343L18.3241 12.2018ZM21.3885 5.4368C21.3706 5.43666 21.3532 5.44246 21.3388 5.45329C21.3245 5.46413 21.3141 5.47942 21.3092 5.4968L19.3902 12.3243C19.385 12.3428 19.3864 12.3625 19.394 12.3801C19.4017 12.3977 19.4153 12.412 19.4323 12.4206C19.4494 12.4292 19.4688 12.4315 19.4874 12.4272C19.506 12.4228 19.5224 12.4121 19.534 12.3968L24.4282 5.5668C24.4368 5.55444 24.4419 5.53993 24.4429 5.52485C24.444 5.50976 24.4408 5.49469 24.4339 5.48128C24.427 5.46786 24.4166 5.45662 24.4038 5.44878C24.391 5.44093 24.3763 5.43679 24.3613 5.4368H21.3885Z" fill="black"/>
<path d="M25.8417 18.4907C26.5607 18.1932 27.3393 17.7307 28.0806 17.8132C29.3723 17.9557 30.131 19.5782 29.4417 20.6332C29.2285 20.9615 28.7748 21.3107 28.0806 21.6807C25.1814 23.2323 22.3045 24.7515 19.45 26.2382C19.2142 26.3619 18.9471 26.4107 18.6839 26.3782C16.4988 26.1165 14.3169 25.8523 12.1384 25.5857C10.8764 25.4332 9.10124 26.1582 7.85413 26.4807C7.75 26.5073 7.69794 26.5748 7.69794 26.6832V27.3132C7.69794 27.4624 7.63916 27.6054 7.53454 27.7109C7.42993 27.8164 7.28804 27.8757 7.14008 27.8757H3.24256C3.10908 27.8757 2.98106 27.8222 2.88667 27.727C2.79228 27.6319 2.73926 27.5028 2.73926 27.3682V17.8732C2.73926 17.7412 2.7915 17.6147 2.88449 17.5214C2.97749 17.4281 3.10361 17.3757 3.23513 17.3757C4.47645 17.3773 5.73347 17.3765 7.0062 17.3732C7.63099 17.3707 7.81942 17.7182 7.6781 18.2982C7.67101 18.3266 7.67202 18.3564 7.68101 18.3842C7.69 18.412 7.70662 18.4368 7.72901 18.4557C7.7514 18.4747 7.77867 18.487 7.80778 18.4914C7.83688 18.4958 7.86667 18.4921 7.8938 18.4807C9.14587 17.9432 10.7921 17.0332 12.1682 17.0007C14.2525 16.9507 16.3368 16.8982 18.4211 16.8432C19.2112 16.8215 19.8236 17.124 20.2583 17.7507C20.3095 17.8257 20.3756 17.844 20.4566 17.8057C21.3376 17.3857 22.2062 16.9665 23.0624 16.5482C24.3194 15.9357 25.6657 17.0857 25.6905 18.3907C25.6922 18.499 25.7426 18.5323 25.8417 18.4907ZM23.8632 19.4032C25.4798 18.5582 24.4682 16.9032 23.4566 17.3957C22.5492 17.834 21.6467 18.2823 20.7492 18.7407C20.6252 18.804 20.5227 18.989 20.4417 19.2957C20.1145 20.5282 18.5921 20.7732 17.5062 20.8807C17.4783 20.883 17.4523 20.895 17.4327 20.9148C17.4131 20.9346 17.401 20.9609 17.3987 20.9891C17.3963 21.0173 17.4038 21.0456 17.4198 21.0692C17.4358 21.0928 17.4594 21.1101 17.4864 21.1182L19.3607 21.6557C19.4417 21.679 19.5194 21.6715 19.5938 21.6332C21.0219 20.8898 22.445 20.1465 23.8632 19.4032ZM28.0855 20.6182C29.3922 19.9182 28.4351 18.3357 27.55 18.7707C24.9219 20.059 22.2938 21.3507 19.6657 22.6457C19.5913 22.6823 19.5145 22.6882 19.4351 22.6632L15.4335 21.4357C15.3879 21.4226 15.3402 21.4209 15.2946 21.4307L13.1723 21.8932C13.1017 21.9077 13.0273 21.8972 12.9616 21.8632C12.6459 21.6982 12.5723 21.4657 12.7409 21.1657C12.7691 21.116 12.8073 21.0728 12.8529 21.0388C12.8986 21.0048 12.9508 20.9807 13.0062 20.9682C14.8756 20.5582 16.7145 20.149 18.5227 19.7407C20.0872 19.3882 19.926 17.7757 18.2971 17.8057C16.3054 17.8423 14.312 17.8857 12.3169 17.9357C10.931 17.9707 9.13099 18.9682 7.82438 19.5032C7.74008 19.5382 7.69794 19.6015 7.69794 19.6932V25.3707C7.69786 25.3932 7.70301 25.4155 7.71298 25.4357C7.72294 25.456 7.73746 25.4736 7.75542 25.4874C7.77338 25.5012 7.7943 25.5106 7.81657 25.5151C7.83884 25.5196 7.86187 25.5189 7.88389 25.5132C9.13595 25.1757 10.8393 24.4832 12.0864 24.6357C14.2781 24.904 16.4632 25.1707 18.6417 25.4357C18.8243 25.4568 19.0082 25.4229 19.1698 25.3382C22.1517 23.7748 25.1236 22.2015 28.0855 20.6182ZM6.76818 18.4757C6.76818 18.4543 6.76401 18.4332 6.75592 18.4135C6.74782 18.3938 6.73595 18.3759 6.72098 18.3608C6.70602 18.3457 6.68825 18.3337 6.6687 18.3255C6.64915 18.3174 6.62819 18.3132 6.60703 18.3132H3.83017C3.809 18.3132 3.78805 18.3174 3.76849 18.3255C3.74894 18.3337 3.73118 18.3457 3.71621 18.3608C3.70125 18.3759 3.68938 18.3938 3.68128 18.4135C3.67318 18.4332 3.66901 18.4543 3.66901 18.4757V26.7757C3.66901 26.8188 3.68599 26.8601 3.71621 26.8906C3.74643 26.9211 3.78743 26.9382 3.83017 26.9382H6.60703C6.64977 26.9382 6.69076 26.9211 6.72098 26.8906C6.7512 26.8601 6.76818 26.8188 6.76818 26.7757V18.4757Z" fill="black"/>
</svg>
