<svg width="25" height="24" viewBox="0 0 25 24" fill="none" xmlns="http://www.w3.org/2000/svg">
<path d="M12.5078 1.6875C12.2205 1.6875 11.9361 1.74408 11.6707 1.85401C11.4053 1.96395 11.1641 2.12508 10.961 2.3282C10.7579 2.53133 10.5968 2.77248 10.4868 3.03788C10.3769 3.30328 10.3203 3.58773 10.3203 3.875C10.3203 4.16227 10.3769 4.44672 10.4868 4.71212C10.5968 4.97752 10.7579 5.21867 10.961 5.4218C11.1641 5.62492 11.4053 5.78605 11.6707 5.89599C11.9361 6.00592 12.2205 6.0625 12.5078 6.0625C13.088 6.0625 13.6444 5.83203 14.0546 5.4218C14.4648 5.01156 14.6953 4.45516 14.6953 3.875C14.6953 3.29484 14.4648 2.73844 14.0546 2.3282C13.6444 1.91797 13.088 1.6875 12.5078 1.6875ZM8.75781 3.875C8.75781 2.88044 9.1529 1.92661 9.85616 1.22335C10.5594 0.520088 11.5133 0.125 12.5078 0.125C13.5024 0.125 14.4562 0.520088 15.1595 1.22335C15.8627 1.92661 16.2578 2.88044 16.2578 3.875C16.2578 4.86956 15.8627 5.82339 15.1595 6.52665C14.4562 7.22991 13.5024 7.625 12.5078 7.625C11.5133 7.625 10.5594 7.22991 9.85616 6.52665C9.1529 5.82339 8.75781 4.86956 8.75781 3.875ZM20.6328 2.9375C20.2184 2.9375 19.821 3.10212 19.528 3.39515C19.2349 3.68817 19.0703 4.0856 19.0703 4.5C19.0703 4.9144 19.2349 5.31183 19.528 5.60485C19.821 5.89788 20.2184 6.0625 20.6328 6.0625C21.0472 6.0625 21.4446 5.89788 21.7377 5.60485C22.0307 5.31183 22.1953 4.9144 22.1953 4.5C22.1953 4.0856 22.0307 3.68817 21.7377 3.39515C21.4446 3.10212 21.0472 2.9375 20.6328 2.9375ZM17.5078 4.5C17.5078 3.6712 17.8371 2.87634 18.4231 2.29029C19.0092 1.70424 19.804 1.375 20.6328 1.375C21.4616 1.375 22.2565 1.70424 22.8425 2.29029C23.4286 2.87634 23.7578 3.6712 23.7578 4.5C23.7578 5.3288 23.4286 6.12366 22.8425 6.70971C22.2565 7.29576 21.4616 7.625 20.6328 7.625C19.804 7.625 19.0092 7.29576 18.4231 6.70971C17.8371 6.12366 17.5078 5.3288 17.5078 4.5ZM2.82031 4.5C2.82031 4.0856 2.98493 3.68817 3.27796 3.39515C3.57098 3.10212 3.96841 2.9375 4.38281 2.9375C4.79721 2.9375 5.19464 3.10212 5.48767 3.39515C5.78069 3.68817 5.94531 4.0856 5.94531 4.5C5.94531 4.9144 5.78069 5.31183 5.48767 5.60485C5.19464 5.89788 4.79721 6.0625 4.38281 6.0625C3.96841 6.0625 3.57098 5.89788 3.27796 5.60485C2.98493 5.31183 2.82031 4.9144 2.82031 4.5ZM4.38281 1.375C3.55401 1.375 2.75916 1.70424 2.1731 2.29029C1.58705 2.87634 1.25781 3.6712 1.25781 4.5C1.25781 5.3288 1.58705 6.12366 2.1731 6.70971C2.75916 7.29576 3.55401 7.625 4.38281 7.625C5.21161 7.625 6.00647 7.29576 6.59252 6.70971C7.17857 6.12366 7.50781 5.3288 7.50781 4.5C7.50781 3.6712 7.17857 2.87634 6.59252 2.29029C6.00647 1.70424 5.21161 1.375 4.38281 1.375ZM6.88281 11.5312C6.88281 10.8268 7.16267 10.1511 7.66081 9.653C8.15895 9.15485 8.83458 8.875 9.53906 8.875H15.4766C16.181 8.875 16.8567 9.15485 17.3548 9.653C17.853 10.1511 18.1328 10.8268 18.1328 11.5312V18.25C18.1328 19.7418 17.5402 21.1726 16.4853 22.2275C15.4304 23.2824 13.9997 23.875 12.5078 23.875C11.016 23.875 9.58523 23.2824 8.53034 22.2275C7.47545 21.1726 6.88281 19.7418 6.88281 18.25V11.5312ZM12.5078 22.3125C13.5853 22.3125 14.6186 21.8845 15.3804 21.1226C16.1423 20.3608 16.5703 19.3274 16.5703 18.25V11.5312C16.5703 11.2412 16.4551 10.963 16.25 10.7579C16.0448 10.5527 15.7666 10.4375 15.4766 10.4375H9.53906C9.24898 10.4375 8.97078 10.5527 8.76567 10.7579C8.56055 10.963 8.44531 11.2412 8.44531 11.5312V18.25C8.44531 19.3274 8.87333 20.3608 9.63519 21.1226C10.3971 21.8845 11.4304 22.3125 12.5078 22.3125ZM4.38281 20.4375C4.90547 20.4383 5.41793 20.2928 5.86219 20.0175C5.99906 20.5337 6.19469 21.0256 6.44094 21.4863C5.77427 21.8417 5.02694 22.0184 4.2717 21.9992C3.51646 21.98 2.77906 21.7656 2.1313 21.3768C1.48355 20.988 0.947504 20.4381 0.575375 19.7806C0.203246 19.1231 0.00771183 18.3805 0.00781257 17.625V11.5319C0.00773048 11.183 0.0763759 10.8375 0.209828 10.5152C0.343281 10.1928 0.538925 9.89994 0.785589 9.65322C1.03225 9.4065 1.3251 9.21078 1.64742 9.07726C1.96973 8.94373 2.31519 8.875 2.66406 8.875H6.10156C6.28156 8.875 6.45781 8.89313 6.62719 8.92688C6.23795 9.36131 5.95112 9.87752 5.78781 10.4375H2.66406C2.37398 10.4375 2.09578 10.5527 1.89066 10.7579C1.68555 10.963 1.57031 11.2412 1.57031 11.5312V17.625C1.57031 18.3709 1.86663 19.0863 2.39407 19.6137C2.92152 20.1412 3.63689 20.4375 4.38281 20.4375ZM20.6328 22C19.915 22.0012 19.208 21.8249 18.5747 21.4869C18.8209 21.0256 19.0166 20.5337 19.1534 20.0175C19.5795 20.281 20.0682 20.4259 20.569 20.4373C21.0699 20.4486 21.5647 20.326 22.0022 20.0821C22.4398 19.8382 22.8043 19.4818 23.058 19.0498C23.3117 18.6179 23.4454 18.126 23.4453 17.625V11.5312C23.4453 11.2412 23.3301 10.963 23.125 10.7579C22.9198 10.5527 22.6416 10.4375 22.3516 10.4375H19.2278C19.0643 9.87747 18.7773 9.36125 18.3878 8.92688C18.5584 8.89313 18.7341 8.875 18.9141 8.875H22.3516C23.056 8.875 23.7317 9.15485 24.2298 9.653C24.728 10.1511 25.0078 10.8268 25.0078 11.5312V17.625C25.0078 18.7853 24.5469 19.8981 23.7264 20.7186C22.9059 21.5391 21.7931 22 20.6328 22Z" fill="black"/>
</svg>
