<svg width="91" height="67" viewBox="0 0 91 67" fill="none" xmlns="http://www.w3.org/2000/svg">
<path d="M69.8003 24.6347C70.3229 23.9006 70.884 23.0542 71.5219 22.4514C76.7866 17.4742 86.5781 19.1022 89.3103 25.9888C90.1288 28.0524 90.2806 30.5305 89.7561 32.6872C88.5706 37.5826 84.3704 40.1786 79.5688 40.812C76.4253 41.2266 73.3991 40.8348 70.3191 40.2129C68.9318 39.9314 67.8693 39.9314 66.7625 40.6655C66.5602 40.7999 66.459 40.7467 66.459 40.5058C66.4564 30.7593 66.4558 21.0833 66.457 11.4776C66.457 8.36234 64.87 8.49357 62.3933 8.33951C62.3663 8.33832 62.3401 8.33016 62.3172 8.31583C62.2943 8.30149 62.2755 8.28148 62.2626 8.25773L62.1953 8.13411C62.1883 8.12048 62.1849 8.10523 62.1856 8.08992C62.1864 8.0746 62.1912 8.05974 62.1995 8.04683C62.2079 8.03392 62.2196 8.02342 62.2333 8.01638C62.2471 8.00933 62.2625 8.00599 62.278 8.00669C63.7575 8.08276 65.554 7.94202 67.02 7.69478C68.6481 7.41965 69.5633 6.48203 69.7657 4.88192C69.7691 4.8576 69.779 4.83462 69.7945 4.81539C69.8099 4.79617 69.8303 4.78141 69.8535 4.77266C69.8766 4.76391 69.9018 4.76149 69.9262 4.76566C69.9507 4.76982 69.9735 4.78042 69.9924 4.79634C70.0321 4.83057 70.0494 4.88636 70.0443 4.9637C69.9342 6.62847 69.831 8.29324 69.735 9.958C69.4583 14.783 69.6254 19.7013 69.6331 24.5814C69.6331 24.7729 69.6889 24.7906 69.8003 24.6347ZM69.8118 39.8439C71.7614 39.8845 73.7181 39.887 75.6817 39.8515C77.3201 39.8211 78.5491 39.6968 79.3689 39.4788C82.0935 38.758 84.5279 36.7914 85.5367 34.2106C87.5484 29.0756 85.7173 22.1166 79.3881 21.2113C75.2302 20.618 70.9339 22.9573 69.881 27.1927C69.7158 27.8584 69.6325 28.8714 69.6312 30.2319C69.6248 33.389 69.6242 36.5321 69.6293 39.6613C69.6293 39.7091 69.6484 39.755 69.6825 39.7891C69.7167 39.8232 69.7631 39.8429 69.8118 39.8439Z" fill="#BFA674"/>
<path d="M55.4734 19.1346C54.7913 19.5283 53.6808 20.9661 53.4752 21.7896C53.4676 21.8195 53.4686 21.851 53.4781 21.8808C53.4876 21.9106 53.5052 21.9376 53.529 21.9588C54.5089 22.847 55.2736 23.8968 55.5887 25.2034C57.2238 31.9722 50.2241 34.5207 44.9037 34.2905C44.8631 34.2887 44.8225 34.2952 44.7845 34.3095C44.7465 34.3239 44.712 34.3459 44.6829 34.3741C44.6539 34.4023 44.6311 34.4361 44.6158 34.4734C44.6006 34.5107 44.5933 34.5508 44.5944 34.591C44.6174 35.4126 44.4945 36.3655 44.7654 37.111C45.2534 38.4512 46.2052 39.418 47.6206 40.0113C52.7469 42.1605 58.8513 41.9969 63.553 44.9676C66.218 46.6508 67.6533 49.6082 67.5399 52.7405C67.3612 57.5884 62.3809 60.8006 58.3344 62.2993C49.3826 65.6143 36.6359 65.4013 29.2903 58.4918C23.7336 53.2654 25.6512 44.0376 33.4098 42.3411C37.0298 41.55 41.3914 42.13 44.2101 44.631C46.2045 46.4016 47.2479 48.6173 46.8597 51.3712C46.2334 55.8273 42.1235 58.9939 37.6504 59.0985C37.634 59.0985 37.6182 59.0929 37.6056 59.0825C37.5931 59.072 37.5847 59.0575 37.5819 59.0416C37.5791 59.0256 37.5822 59.0092 37.5905 58.9952C37.5988 58.9812 37.6119 58.9707 37.6273 58.9653C43.1956 57.1643 46.8098 50.3898 42.4635 45.5134C40.4345 43.2363 37.7183 42.3678 34.3148 42.9079C30.5124 43.5089 27.7859 45.9661 27.1095 49.7508C25.4763 58.8969 38.4824 62.0844 44.9729 62.2746C50.1319 62.4248 55.0988 61.7782 59.8408 59.7546C61.9601 58.8493 64.3523 57.2936 65.4802 55.3917C66.7617 53.2274 66.6196 50.9984 64.7654 49.1936C64.4131 48.85 63.6913 48.4227 62.6 47.9117C60.6151 46.9798 57.9732 46.3236 55.3678 45.6808C51.6902 44.7755 46.6253 43.3567 44.5483 39.9524C43.4377 38.1342 43.4185 36.4054 43.4454 34.3381C43.4467 34.2392 43.3974 34.1847 43.2974 34.1745C38.7744 33.7105 34.6991 30.6561 35.5887 25.639C36.5629 20.1445 43.5914 19.0813 48.1048 19.7584C49.6086 19.9841 51.0721 20.4697 52.4952 21.2152C52.5567 21.2469 52.6035 21.233 52.6355 21.1734C53.9344 18.7732 55.5234 17.1547 58.3786 16.9474C61.8468 16.6964 62.1138 21.2913 58.7341 21.2628C58.6687 21.2615 58.6335 21.2285 58.6284 21.1639C58.4766 19.3191 57.4314 18.003 55.4734 19.1346ZM38.9973 25.3727C37.6639 31.9379 43.038 34.3457 48.6313 32.8185C52.1955 31.8447 53.0083 28.5621 52.2186 25.3385C51.5806 22.7291 49.6496 21.0345 46.9059 20.7169C43.2321 20.2928 39.8082 21.3826 38.9973 25.3727Z" fill="#BFA674"/>
<path d="M22.6447 20.4706C27.7479 22.1271 30.6339 26.8057 29.8039 32.0644C28.4723 40.4953 18.2485 42.3554 11.3621 40.1435C6.71808 38.6524 3.57465 34.4322 4.01465 29.5444C4.84662 20.3242 15.2568 18.0742 22.6447 20.4706ZM26.1666 31.6916C26.7776 24.6737 22.1797 19.862 14.9609 20.8453C10.6262 21.4348 8.32822 24.3086 7.82673 28.3652C6.91983 35.7179 11.8406 41.1553 19.5339 39.6851C23.909 38.8483 25.8035 35.8719 26.1666 31.6916Z" fill="#BFA674"/>
</svg>
